<?xml version="1.0" encoding="utf-8"?>
<!-- Generator: Adobe Illustrator 19.0.0, SVG Export Plug-In . SVG Version: 6.00 Build 0)  -->
<svg version="1.1" id="图层_1" xmlns="http://www.w3.org/2000/svg" xmlns:xlink="http://www.w3.org/1999/xlink" x="0px" y="0px"
	 viewBox="0 0 60 60" style="enable-background:new 0 0 60 60;" xml:space="preserve">
<style type="text/css">
	.st0{fill:url(#XMLID_15_);}
	.st1{fill:#FFFFFF;}
</style>
<linearGradient id="XMLID_15_" gradientUnits="userSpaceOnUse" x1="30" y1="-1.166882e-009" x2="30" y2="60">
	<stop  offset="1.440243e-006" style="stop-color:#41A4FB"/>
	<stop  offset="1" style="stop-color:#7291FB"/>
</linearGradient>
<path id="XMLID_1_" class="st0" d="M56,60H4c-2.2,0-4-1.8-4-4V4c0-2.2,1.8-4,4-4h52c2.2,0,4,1.8,4,4v52C60,58.2,58.2,60,56,60z"/>
<path id="XMLID_7_" class="st1" d="M16,40.9c0-0.9-0.8-1.7-1.7-1.7h-2.7c-0.9,0-1.7,0.8-1.7,1.7c0,0.9,0.8,1.7,1.7,1.7h2.7
	C15.2,42.6,16,41.9,16,40.9z M11.6,20.9h2.7c0.9,0,1.7-0.8,1.7-1.7c0-0.9-0.8-1.7-1.7-1.7h-2.7c-0.9,0-1.7,0.8-1.7,1.7
	C9.9,20.2,10.7,20.9,11.6,20.9L11.6,20.9z M11.6,35.4h2.7c0.9,0,1.7-0.8,1.7-1.7c0-0.9-0.8-1.7-1.7-1.7h-2.7c-0.9,0-1.7,0.8-1.7,1.7
	C9.9,34.6,10.7,35.4,11.6,35.4L11.6,35.4z M47,21.7c-0.2,0-0.3,0-0.5,0.1v6.9c0.2,0,0.3,0.1,0.5,0.1c1.2,0,3.1-0.9,3.1-2.1v-2.9
	C50.1,22.7,48.2,21.7,47,21.7z M47,14.3c-0.2,0-0.3,0-0.5,0.1v6.9c0.2,0,0.3,0.1,0.5,0.1c1.2,0,3.1-0.9,3.1-2.1v-2.9
	C50.1,15.3,48.2,14.3,47,14.3z M11.6,28.2h2.7c0.9,0,1.7-0.8,1.7-1.7c0-0.9-0.8-1.7-1.7-1.7h-2.7c-0.9,0-1.7,0.8-1.7,1.7
	C9.9,27.4,10.7,28.2,11.6,28.2L11.6,28.2z M47,29.1c-0.2,0-0.3,0-0.5,0.1v6.9c0.2,0,0.3,0.1,0.5,0.1c1.2,0,3.1-0.9,3.1-2.1v-2.9
	C50.1,30.1,48.2,29.1,47,29.1L47,29.1z"/>
<path id="XMLID_3_" class="st1" d="M42.3,11.1H15.9c-1.9,0-3.5,1.6-3.5,3.5v2h1.9c1.5,0,2.7,1.2,2.7,2.7c0,1.5-1.2,2.7-2.7,2.7h-1.9
	v1.8h1.9c1.5,0,2.7,1.2,2.7,2.7c0,1.5-1.2,2.7-2.7,2.7h-1.9V31h1.9c1.5,0,2.7,1.2,2.7,2.7c0,1.5-1.2,2.7-2.7,2.7h-1.9v1.8h1.9
	c1.5,0,2.7,1.2,2.7,2.7c0,1.5-1.2,2.7-2.7,2.7h-1.9v2c0,1.9,1.6,3.5,3.5,3.5h26.5c1.9,0,3.5-1.6,3.5-3.5V14.5
	C45.8,12.6,44.2,11.1,42.3,11.1L42.3,11.1z M32.3,42.6H29v-3.3h3.3V42.6z M37.6,27.8c-0.5,0.9-1.4,1.9-2.9,3.2
	c-1,0.8-1.6,1.5-1.9,1.9c-0.3,0.4-0.5,0.9-0.6,1.4c-0.1,0.5-0.2,1.4-0.2,2.5h-2.8c0-0.4,0-0.7,0-0.9c0-1.1,0.2-2.1,0.5-3
	c0.2-0.6,0.6-1.3,1.2-1.9c0.4-0.5,1.1-1.1,2.1-2c1-0.9,1.7-1.6,2-2.1c0.3-0.5,0.5-1.1,0.5-1.7c0-1.1-0.4-2.1-1.3-3
	c-0.9-0.9-2-1.3-3.3-1.3c-1.2,0-2.3,0.4-3.1,1.2c-0.8,0.8-1.4,2-1.6,3.6l-3-0.4c0.3-2.2,1.1-3.9,2.4-5.1c1.3-1.2,3.1-1.8,5.3-1.8
	c2.3,0,4.2,0.6,5.6,1.9c1.4,1.3,2.1,2.8,2.1,4.6C38.3,25.9,38,26.9,37.6,27.8z"/>
</svg>
