<svg xmlns="http://www.w3.org/2000/svg" xmlns:xlink="http://www.w3.org/1999/xlink" version="1.1" x="0px" y="0px" viewBox="0 0 1000 1000" enable-background="new 0 0 1000 1000" xml:space="preserve">
<metadata> Svg Vector Icons : http://www.sfont.cn </metadata>
<g><g><g><path d="M485.9,400.6V83.5H178.6v833.1h642.9V419H504.3C494.2,419,485.9,410.8,485.9,400.6z M784.7,879.8H215.3V120.2h233.9v280.4c0,30.4,24.7,55.1,55.1,55.1h280.4V879.8L784.7,879.8z"/><path d="M522.7,109.4v272.8h272.8L522.7,109.4z M559.4,198.1l147.4,147.4H559.4V198.1z"/><path d="M894.8,394.7l-0.7-2.4c-0.5-3.1-1.2-6.3-2.3-9.4l-1.1-3.3l-0.9-1.9c-2.8-6.2-6.5-11.6-11-16.1L543.3,26.1c-4.5-4.5-9.9-8.2-16.3-11.1l-3.2-1.3l-1.6-0.6c-3.3-1.1-6.6-1.9-10-2.4l-2.7-0.8H160.2c-30.4,0-55.1,24.7-55.1,55.1v869.8c0,30.4,24.7,55.1,55.1,55.1h679.6c30.4,0,55.1-24.7,55.1-55.1V400.6L894.8,394.7z M858.2,934.9c0,10.2-8.2,18.4-18.4,18.4H160.2c-10.1,0-18.4-8.2-18.4-18.4V65.1c0-10.1,8.2-18.4,18.4-18.4h344.1c0.4,0,0.7,0.2,1.1,0.2c1.7,0.1,3.2,0.4,4.8,1c0.6,0.2,1.1,0.3,1.7,0.6c1.9,0.9,3.8,2,5.4,3.6l335.5,335.5c1.6,1.6,2.7,3.4,3.6,5.4c0.3,0.6,0.4,1.1,0.6,1.7c0.5,1.5,0.8,3.1,0.9,4.8c0,0.4,0.2,0.7,0.2,1.1L858.2,934.9L858.2,934.9z"/></g></g><g/><g/><g/><g/><g/><g/><g/><g/><g/><g/><g/><g/><g/><g/><g/></g>
</svg>