<svg xmlns="http://www.w3.org/2000/svg" xmlns:xlink="http://www.w3.org/1999/xlink" version="1.1" id="Capa_1" x="0px" y="0px" width="16px" height="16px" viewBox="0 0 16 16" enable-background="new 0 0 16 16" xml:space="preserve">
<g>
	<path d="M8.5,1C4.358,1,1,4.358,1,8.5C1,12.643,4.358,16,8.5,16c4.143,0,7.5-3.357,7.5-7.5C16,4.358,12.643,1,8.5,1z M8.5,15   C4.916,15,2,12.084,2,8.5S4.916,2,8.5,2S15,4.916,15,8.5S12.084,15,8.5,15z"/>
	<path d="M12.5,8h-8C4.224,8,4,8.224,4,8.5C4,8.775,4.224,9,4.5,9h8C12.775,9,13,8.775,13,8.5C13,8.224,12.775,8,12.5,8z"/>
	<path d="M12.5,5h-8C4.224,5,4,5.224,4,5.5S4.224,6,4.5,6h8C12.775,6,13,5.776,13,5.5S12.775,5,12.5,5z"/>
	<path d="M12.5,11h-8C4.224,11,4,11.225,4,11.5S4.224,12,4.5,12h8c0.275,0,0.5-0.225,0.5-0.5S12.775,11,12.5,11z"/>
</g>
</svg>