<svg xmlns="http://www.w3.org/2000/svg" xmlns:xlink="http://www.w3.org/1999/xlink" version="1.1" id="图层_1" x="0px" y="0px" viewBox="-52 6.2 90 90" style="enable-background:new -52 6.2 90 90;" xml:space="preserve">
<style type="text/css">
	.st1{fill:#FFFFFF;}
</style>
<circle class="st0" cx="-7" cy="51.2" r="45"/>
<path class="st1" d="M6.5,71"/>
<path class="st1" d="M-27,43.5"/>
<path class="st1" d="M-25.4,31.4c-1.5,0-2.6,1.2-2.6,2.6s1.2,2.6,2.6,2.6s2.6-1.2,2.6-2.6C-22.7,32.6-23.9,31.4-25.4,31.4  L-25.4,31.4L-25.4,31.4z"/>
<path class="st1" d="M-17,35.6h29.4c0.9,0,1.6-0.7,1.6-1.6s-0.7-1.6-1.6-1.6H-17c-0.9,0-1.6,0.7-1.6,1.6  C-18.5,34.9-17.8,35.6-17,35.6L-17,35.6L-17,35.6z"/>
<path class="st1" d="M-25.4,47.2c-1.5,0-2.6,1.2-2.6,2.6c0,1.5,1.2,2.6,2.6,2.6s2.6-1.2,2.6-2.6C-22.7,48.3-23.9,47.2-25.4,47.2  L-25.4,47.2L-25.4,47.2z"/>
<path class="st1" d="M12.4,48.2H-17c-0.9,0-1.6,0.7-1.6,1.6s0.7,1.6,1.6,1.6h29.4c0.9,0,1.6-0.7,1.6-1.6S13.3,48.2,12.4,48.2  L12.4,48.2L12.4,48.2z"/>
<path class="st1" d="M-25.4,64c-1.5,0-2.6,1.2-2.6,2.6c0,1.5,1.2,2.6,2.6,2.6s2.6-1.2,2.6-2.6C-22.7,65.1-23.9,64-25.4,64L-25.4,64  L-25.4,64z"/>
<path class="st1" d="M12.4,65H-17c-0.9,0-1.6,0.7-1.6,1.6s0.7,1.6,1.6,1.6h29.4c0.9,0,1.6-0.7,1.6-1.6C14,65.7,13.3,65,12.4,65  L12.4,65L12.4,65z"/>
<path class="st1" d="M12.4,64.7"/>
</svg>