<svg xmlns="http://www.w3.org/2000/svg" xmlns:xlink="http://www.w3.org/1999/xlink" version="1.1" id="图层_1" x="0px" y="0px" viewBox="-356.7 5 29 32" style="enable-background:new -356.7 5 29 32;" xml:space="preserve">
<style type="text/css">
	.st0{fill:#33A9FC;}
</style>
<path class="st0" d="M-352.3,21.9h2.9v1h-2.9V21.9L-352.3,21.9z M-341.9,21c0.3,0,0.5,0.1,0.8,0.2c0.9-1.1,1.9-2.1,3-2.9  c0.3,0.3,0.5,0.5,0.8,0.8c-0.8,1.3-1.8,2.4-2.9,3.3c0,0.1,0,0.2,0,0.3c0,1-0.8,1.7-1.7,1.7c-1,0-1.7-0.8-1.7-1.7  c0-0.4,0.1-0.7,0.3-1c-1.3-1.7-2.4-3.6-3.3-5.6c0.3-0.2,0.6-0.3,0.9-0.5c1.3,1.7,2.4,3.5,3.3,5.4C-342.2,21-342.1,21-341.9,21  L-341.9,21z M-344.4,11.5l0,3l8.2-4.7l-8.2-4.8l0,3.1c-3.1,0.5-5.9,1.9-8.1,4.1c-2.7,2.7-4.2,6.4-4.2,10.3c0,3.9,1.5,7.6,4.2,10.3  c2.7,2.7,6.4,4.3,10.3,4.3c3.9,0,7.5-1.5,10.3-4.3c1.6-1.6,2.8-3.6,3.6-5.8l0.2-0.5l-3.2-1l-0.2,0.5c-0.5,1.7-1.5,3.2-2.7,4.4  c-2.1,2.1-4.9,3.3-7.9,3.3c-3,0-5.8-1.2-7.9-3.3c-2.1-2.1-3.3-4.9-3.3-7.9c0-3,1.2-5.8,3.3-7.9C-348.5,13-346.5,11.9-344.4,11.5  L-344.4,11.5z M-331.2,20.8c-0.1-0.7-0.3-1.4-0.5-2.1l-0.2-0.5l3.2-1.2l0.2,0.5c0.4,1,0.6,2,0.7,3l0.1,0.6l-3.4,0.1L-331.2,20.8  L-331.2,20.8z M-331.3,24.5c0.1-0.7,0.2-1.4,0.2-2c0-0.1,0-0.1,0-0.2l0-0.5l3.4-0.1l0,0.5c0,0.1,0,0.2,0,0.3c0,1-0.1,2-0.3,2.9  l-0.1,0.6l-3.3-1L-331.3,24.5L-331.3,24.5z M-332.3,17.3c-0.3-0.6-0.6-1.1-1-1.6l-0.3-0.4l2.7-2.1l0.3,0.4c0.6,0.8,1.1,1.6,1.5,2.4  l0.3,0.5l-3.2,1.2L-332.3,17.3L-332.3,17.3z M-334,14.9l-0.3-0.3c-0.5-0.5-1-0.9-1.6-1.3l-0.5-0.3l2.1-2.7l0.4,0.3  c0.7,0.5,1.4,1,2,1.6c0.1,0.1,0.1,0.1,0.2,0.2l0.4,0.4L-334,14.9L-334,14.9z M-342.2,32.3v-2.9h1v2.9H-342.2L-342.2,32.3z   M-334.9,29.5l-2-2l0.7-0.7l2,2L-334.9,29.5L-334.9,29.5z M-349.4,29.2l2-2l0.7,0.7l-2,2L-349.4,29.2L-349.4,29.2z M-349.2,14.7l2,2  l-0.7,0.7l-2-2L-349.2,14.7L-349.2,14.7z M-334.7,14.9l-0.7-0.7l-2,2l0.7,0.7L-334.7,14.9L-334.7,14.9z M-331.8,22.3h-2.9v-1h2.9  V22.3z"/>
</svg>