<svg xmlns="http://www.w3.org/2000/svg" xmlns:xlink="http://www.w3.org/1999/xlink" version="1.1" id="图层_1" x="0px" y="0px" viewBox="-273 412.9 16 16" style="enable-background:new -273 412.9 16 16;" xml:space="preserve">
<path d="M-257.5,419.3c-0.4-0.5-1-0.8-1.7-0.8h-3.8c0.2-0.6,0.3-1.2,0.4-1.8c0.1-0.9-0.1-1.7-0.4-2.4  c-0.4-0.8-1.2-1.3-2.1-1.4c-0.4-0.1-0.8,0-1.1,0.2c-0.6,0.5-0.7,1.3-0.8,2.3c-0.1,0.8-0.2,1.7-0.6,2.4c-0.3,0.4-0.8,1-2.2,1h-1.5  c-1,0-1.8,0.8-1.8,1.7v6.6c0,1,0.8,1.7,1.8,1.7h10.6c0.5,0,1-0.2,1.3-0.5c0.4-0.3,0.6-0.7,0.8-1.2l1.5-6.2  C-256.9,420.4-257.1,419.8-257.5,419.3z M-271.8,427.2v-6.6c0-0.3,0.3-0.6,0.6-0.6h1.2v7.7h-1.2  C-271.6,427.7-271.8,427.5-271.8,427.2z M-258.2,420.8l-1.5,6.2c-0.1,0.4-0.5,0.7-1,0.7h-8.2l0-7.8c1-0.2,1.7-0.7,2.2-1.5  c0.5-0.9,0.7-1.9,0.8-2.8c0.1-0.4,0.1-0.8,0.2-1.1c0.1-0.3,0.2-0.4,0.2-0.4c0,0,0.1,0,0.2,0c0.6,0.1,1,0.4,1.2,0.8  c0.5,0.9,0.3,2.5-0.2,3.6c-0.1,0.3-0.1,0.6,0.1,0.8c0.2,0.2,0.4,0.4,0.7,0.4h4.3c0.3,0,0.6,0.1,0.8,0.4  C-258.2,420.2-258.1,420.5-258.2,420.8z"/>
</svg>