<svg version="1.1" id="图层_1" xmlns="http://www.w3.org/2000/svg" xmlns:xlink="http://www.w3.org/1999/xlink" x="0px" y="0px"
	 viewBox="-280 387.2 14 18.4" style="enable-background:new -280 387.2 14 18.4;" xml:space="preserve">
<style type="text/css">
	.st0{fill:#8C8C8C;}
</style>
<path class="st0" d="M-273,387.2c-3.9,0-7,3-7,6.7c0,3.6,3.3,8,5.1,9.8c0.7,0.7,1.6,1.8,1.6,1.8c0.1,0.1,0.2,0.2,0.3,0.2h0
	c0.1,0,0.3-0.1,0.3-0.2c0,0,0.9-1,1.7-1.8c1.8-1.8,5-5.9,5-9.8C-266,390.2-269.1,387.2-273,387.2z M-271.6,403.1
	c-0.5,0.5-1,1.1-1.4,1.5c-0.3-0.4-0.8-0.9-1.3-1.4c-1.9-2-4.8-6.1-4.8-9.2c0-3.2,2.7-5.8,6.1-5.8c3.4,0,6.1,2.6,6.1,5.8
	C-266.9,397.4-269.9,401.3-271.6,403.1z M-273,390.6c-1.9,0-3.4,1.5-3.4,3.3s1.5,3.3,3.4,3.3c1.9,0,3.4-1.5,3.4-3.3
	S-271.1,390.6-273,390.6z M-273,396.2c-1.4,0-2.5-1.1-2.5-2.4s1.1-2.4,2.5-2.4c1.4,0,2.5,1.1,2.5,2.4S-271.6,396.2-273,396.2z"/>
</svg>