<svg version="1.1" id="图层_1" xmlns="http://www.w3.org/2000/svg" xmlns:xlink="http://www.w3.org/1999/xlink" x="0px" y="0px"
	 viewBox="-267 387 20 20" style="enable-background:new -267 387 20 20;" xml:space="preserve">
<style type="text/css">
	.st0{fill:#8C8C8C;}
</style>
<path class="st0" d="M-257,407c-5.5,0-10-4.5-10-10c0-5.5,4.5-10,10-10s10,4.5,10,10C-247,402.5-251.5,407-257,407z M-257,388
	c-5,0-9,4.1-9,9c0,5,4.1,9,9,9s9-4.1,9-9C-248,392-252,388-257,388z"/>
<g>
	<path class="st0" d="M-261.6,390.8h1.3l3.3,5.9l3.3-5.9h1.3l-3.6,6.3h2.8v0.7h-3.2v1.8h3.2v0.7h-3.2v2.8h-1.1v-2.8h-3.2v-0.7h3.2
		v-1.8h-3.2v-0.7h2.8L-261.6,390.8z"/>
</g>
</svg>