<svg t="1509524513473" class="icon" style="" viewBox="0 0 1024 1024" version="1.1" xmlns="http://www.w3.org/2000/svg" p-id="25852" xmlns:xlink="http://www.w3.org/1999/xlink" width="200" height="200"><defs><style type="text/css"></style></defs><path d="M647.886979 297.177872 385.699404 297.177872c-52.224 0-94.752681 42.485106-94.752681 94.730894l0 262.187574c0 52.224 42.485106 94.730894 94.752681 94.730894l262.187574 0c52.202213 0 94.730894-42.463319 94.730894-94.730894L742.617872 391.908766C742.617872 339.662979 700.132766 297.177872 647.886979 297.177872zM397.791319 646.514383c-12.04834 0-21.787234-9.738894-21.787234-21.787234s9.738894-21.787234 21.787234-21.787234 21.787234 9.738894 21.787234 21.787234S409.83966 646.514383 397.791319 646.514383zM397.791319 544.789787c-12.04834 0-21.787234-9.738894-21.787234-21.787234 0-12.04834 9.738894-21.787234 21.787234-21.787234s21.787234 9.738894 21.787234 21.787234C419.578553 535.050894 409.83966 544.789787 397.791319 544.789787zM397.791319 443.043404c-12.04834 0-21.787234-9.738894-21.787234-21.787234 0-12.04834 9.738894-21.787234 21.787234-21.787234s21.787234 9.738894 21.787234 21.787234C419.578553 433.304511 409.83966 443.043404 397.791319 443.043404zM641.241872 635.620766 468.425532 635.620766c-6.013277 0-10.893617-4.902128-10.893617-10.893617s4.88034-10.893617 10.893617-10.893617l172.81634 0c6.013277 0 10.893617 4.902128 10.893617 10.893617S647.255149 635.620766 641.241872 635.620766zM641.241872 533.89617 468.425532 533.89617c-6.013277 0-10.893617-4.88034-10.893617-10.893617s4.88034-10.893617 10.893617-10.893617l172.81634 0c6.013277 0 10.893617 4.88034 10.893617 10.893617S647.255149 533.89617 641.241872 533.89617zM641.241872 432.149787 468.425532 432.149787c-6.013277 0-10.893617-4.88034-10.893617-10.893617 0-6.013277 4.88034-10.893617 10.893617-10.893617l172.81634 0c6.013277 0 10.893617 4.88034 10.893617 10.893617C652.135489 427.269447 647.255149 432.149787 641.241872 432.149787z" p-id="25853" fill="#000000"></path><path d="M512 0C229.223489 0 0 229.223489 0 512 0 794.776511 229.223489 1024 512 1024 794.776511 1024 1024 794.776511 1024 512 1024 229.245277 794.776511 0 512 0zM764.405106 654.074553c0 64.250553-52.267574 116.518128-116.518128 116.518128L385.699404 770.592681c-64.228766 0-116.539915-52.245787-116.539915-116.518128L269.159489 391.908766c0-64.250553 52.267574-116.518128 116.539915-116.518128l262.187574 0c64.206979 0 116.518128 52.267574 116.518128 116.518128L764.405106 654.074553z" p-id="25854" fill="#000000"></path></svg>