<svg version="1.1" id="图层_1" xmlns="http://www.w3.org/2000/svg" xmlns:xlink="http://www.w3.org/1999/xlink" x="0px" y="0px"
	 viewBox="-122.8 -1.2 70 70" style="enable-background:new -122.8 -1.2 70 70;" xml:space="preserve">
<style type="text/css">
	.st0{fill:#FFF9E3;}
	.st1{fill:#CAEBFF;}
	.st2{fill:#92DBFF;}
	.st3{fill:none;stroke:#33A9FC;stroke-width:1.8;stroke-linecap:round;stroke-miterlimit:10;}
	.st4{fill:#33A9FC;}
	.st5{fill:none;stroke:#FFFFFF;stroke-linecap:round;stroke-linejoin:round;stroke-miterlimit:10;}
</style>
<circle class="st0" cx="-87.8" cy="33.8" r="35"/>
<path d="M-80.7,15.1L-80.7,15.1C-80.7,15.2-80.7,15.2-80.7,15.1L-80.7,15.1z"/>
<path class="st1" d="M-96.2,33.2c0,9.1,15.5,21.9,6.4,21.9s-19.8-10.1-19.8-19.3s7.4-16.6,16.5-16.6S-96.2,24.1-96.2,33.2z"/>
<path class="st2" d="M-70.4,20.1c-0.1,0.1-0.2,0.2-0.3,0.4c0,0,0,0,0,0L-70.4,20.1c-1.5-1.9-3.4-3.6-5.8-5.2l-0.3,0.3c0,0,0,0,0,0
	c0.1-0.1,0.2-0.3,0.3-0.3c-0.3-0.3-0.7-0.4-1.1-0.7c-3.1-1.7-6.7-2.6-10.4-2.6c-12.3,0-22.4,10.1-22.4,22.5s10,22.5,22.4,22.5
	S-65.4,46.4-65.4,34C-65.4,29.3-66.9,24.4-70.4,20.1z M-69.3,24.3c-1.4-0.5-3,1.5-2.2,3.8c-6.2,4.8-4.6,8.1-2.6,10.1
	c1,1,2.1,2.5,2.7,3.6c-0.5,1.7,1.3,1.5,3-0.3c-2.4,6.3-7.7,11.2-14.3,12.9c-0.2-0.4-0.6-0.6-1.4-0.4c0.7-3.1,1-4.8,2.5-6.1
	c2.1-1.9,0.2-4-1.4-3.8c-1.3,0.2-0.5-1.6-1.6-1.7c-1.1-0.1-2.7-2.4-4.3-3.2c-0.9-0.4-1.7-1.5-3.1-1.6c-1.2,0-3,1-3,0.2
	c0-2.7-0.2-4.6-0.3-5.4c0-0.6-0.4-0.2,1.2-0.1c0.9,0,0.4-1.8,1.3-1.9c0.8-0.1,2.9,0.8,3.4,0.4s3.6,8.2,3.6,1.4c0-0.8-0.4-2.2,0-3
	c1.6-3,3.2-5.4,3-5.8c-0.1-0.2-1.7-0.4-2.9,0c-0.4,0.1,0.1,0.9-0.5,1c-2.3,0.5-4.4-0.6-3.6-1.8c0.7-1.1,3.4-0.5,3.6-2.8
	c0.1-1.3,0.2-2.8,0.3-3.9c1.9,0.3,2.5-1.3,1.6-2.8C-77.6,14.5-72.2,18.7-69.3,24.3z M-105.3,28.3c0.9,0.6,2.2,0.7,2.2,1.9
	c0,3.8,0.1,7.9,3.6,8c0.1,0,1.9,0.7,2.8,3c0.3,0.8,1.5,0,2.8,0c0.6,0,0,1.1,0,3.5s5.1,6,5.1,6c0,1.5,0,2.8,0.1,3.8
	c-0.9,0-1.7,0.1-2.4,0.3c-9.9-1.6-17.5-10.3-17.5-20.8c0-1.6,0.2-3.1,0.5-4.6C-107.1,29.8-105.7,29.5-105.3,28.3z"/>
<path d="M-74.9,20.2L-74.9,20.2L-74.9,20.2C-75,20.2-75,20.2-74.9,20.2z"/>
<path class="st3" d="M-67.3,41.9"/>
<path class="st3" d="M-75.4,52.1c-3.5,2.4-7.8,3.8-12.4,3.8c-12.1,0-22-9.9-22-22.1s9.8-22.1,22-22.1s22,9.9,22,22.1
	c0,1.3-0.1,2.6-0.3,3.9"/>
<path class="st4" d="M-66.3,45.9h-3.3c-0.3,0-0.5,0.2-0.5,0.5v3.1c0,0.6-0.5,1.1-1.2,1.1c-0.6,0-1.2-0.5-1.2-1.1v-3.1
	c0-0.3-0.2-0.5-0.5-0.5h-3.3c-0.6,0-1.2-0.5-1.2-1.1c0-0.6,0.5-1.1,1.2-1.1h3.3c0.3,0,0.5-0.2,0.5-0.5V40c0-0.6,0.5-1.1,1.2-1.1
	c0.6,0,1.2,0.5,1.2,1.1v3.1c0,0.3,0.2,0.5,0.5,0.5h3.3c0.6,0,1.2,0.5,1.2,1.1C-65.1,45.4-65.7,45.9-66.3,45.9z"/>
<g>
	<path class="st5" d="M-96.8,49.6c-3.6-1.4-6.4-4.5-7.3-8.5c-0.1-0.4-0.1-0.7-0.2-1.1"/>
	<path class="st5" d="M-90.9,50.3c-1.2,0.2-2.4,0.1-3.6-0.1"/>
</g>
</svg>