<svg xmlns="http://www.w3.org/2000/svg" xmlns:xlink="http://www.w3.org/1999/xlink" version="1.1" id="图层_1" x="0px" y="0px" viewBox="-8188 196.4 58 80" style="enable-background:new -8188 196.4 58 80;" xml:space="preserve">
<style type="text/css">
	.st0{fill:#34a9fc;}
</style>
<path class="st0" d="M-8147.8,237.9v-3c10.7-4.5,17.8-15.3,17.8-27.2v-2.3c0-1.8-1.1-3.3-3.2-4.6c-1.5-0.9-3.7-1.7-6.3-2.4  c-5.2-1.3-12.1-2.1-19.5-2.1s-14.2,0.7-19.5,2.1c-2.7,0.7-4.8,1.5-6.3,2.4c-2.1,1.3-3.2,2.8-3.2,4.6v2.3c0,11.9,7.1,22.7,17.8,27.2  v3c-10.7,4.5-17.8,15.3-17.8,27.2v2.3c0,1.8,1.1,3.3,3.2,4.6c1.5,0.9,3.7,1.7,6.3,2.4c5.2,1.3,12.1,2.1,19.5,2.1s14.2-0.7,19.5-2.1  c2.7-0.7,4.8-1.5,6.3-2.4c2.1-1.3,3.2-2.8,3.2-4.6v-2.3C-8130,253.2-8137.1,242.4-8147.8,237.9z M-8177.1,204.1  c4.8-1.2,11.2-1.9,18.1-1.9c6.9,0,13.3,0.7,18.1,1.9c0,0,0,0,0,0c2.7,0.7,4.1,1.4,4.8,1.7c-0.6,0.4-2,1.1-4.8,1.7  c-4.8,1.2-11.2,1.9-18.1,1.9s-13.3-0.7-18.1-1.9c-2.7-0.7-4.1-1.4-4.8-1.8C-8181.2,205.5-8179.8,204.8-8177.1,204.1z M-8135.7,266.7  c-0.1,0.1-0.2,0.2-0.4,0.3c-0.6,0.4-2,1.1-4.8,1.8c-4.8,1.2-11.2,1.9-18.1,1.9s-13.3-0.7-18.1-1.9c-2.8-0.7-4.2-1.4-4.8-1.8  c0,0,0,0,0,0c-0.2-0.1-0.3-0.2-0.4-0.2v-1.6c0-4.7,1.4-9.2,3.9-13.1c2.6-3.9,6.2-6.9,10.4-8.7c2.1-0.9,3.5-3,3.5-5.4v-3  c0-2.3-1.4-4.5-3.5-5.4c-4.2-1.8-7.8-4.8-10.4-8.7c-1.7-2.6-2.9-5.6-3.5-8.6c1,0.4,2.1,0.7,3.4,1c5.2,1.3,12.1,2.1,19.5,2.1  s14.2-0.7,19.5-2.1c1.2-0.3,2.4-0.7,3.4-1c-0.6,3.1-1.8,6-3.5,8.6c-2.6,3.9-6.2,6.9-10.4,8.7c-2.1,0.9-3.5,3-3.5,5.4v3  c0,2.4,1.4,4.5,3.5,5.4c4.2,1.8,7.8,4.8,10.4,8.7c2.6,3.9,3.9,8.4,3.9,13.1V266.7z"/>
<path class="st0" d="M-8141.2,259.2c-5-1.1-11.2-1.7-17.8-1.7s-12.8,0.6-17.8,1.7c-1.3,0.3-2.3,1.4-2.3,2.9c0,1.6,1.3,2.9,2.9,2.9  c0.2,0,0.4,0,0.6-0.1c0,0,0,0,0,0v0c4.6-1,10.5-1.6,16.7-1.6s12.1,0.5,16.7,1.6v0c0,0,0,0,0,0c0.2,0,0.4,0.1,0.6,0.1  c1.6,0,2.9-1.3,2.9-2.9C-8138.8,260.6-8139.8,259.4-8141.2,259.2z"/>
</svg>