<?xml version="1.0" encoding="utf-8"?>
<!-- Generator: Adobe Illustrator 19.0.0, SVG Export Plug-In . SVG Version: 6.00 Build 0)  -->
<svg version="1.1" id="图层_1" xmlns="http://www.w3.org/2000/svg" xmlns:xlink="http://www.w3.org/1999/xlink" x="0px" y="0px"
	 viewBox="0 0 60 60" style="enable-background:new 0 0 60 60;" xml:space="preserve">
<style type="text/css">
	.st0{fill:url(#XMLID_8_);}
	.st1{fill:#FFFFFF;}
</style>
<linearGradient id="XMLID_8_" gradientUnits="userSpaceOnUse" x1="30" y1="60" x2="30" y2="-1.166882e-009">
	<stop  offset="1.031525e-006" style="stop-color:#4AAFFC"/>
	<stop  offset="1" style="stop-color:#994DFE"/>
</linearGradient>
<path id="XMLID_1_" class="st0" d="M56,60H4c-2.2,0-4-1.8-4-4V4c0-2.2,1.8-4,4-4h52c2.2,0,4,1.8,4,4v52C60,58.2,58.2,60,56,60z"/>
<path id="XMLID_4_" class="st1" d="M25.4,47.9c-0.5,0-0.7-0.2-1-0.5c-3.6-4-9.3-4-9.5-4c-0.7,0-1.4-0.7-1.4-1.4s0.7-1.4,1.4-1.4
	c0.2,0,7.1,0,11.4,5c0.5,0.5,0.5,1.4,0,1.9C25.9,47.9,25.7,47.9,25.4,47.9z M34.5,47.9c-0.2,0-0.7-0.2-1-0.5c-0.5-0.5-0.5-1.4,0-1.9
	c4.5-5,11.2-5,11.4-5c0.7,0,1.4,0.7,1.4,1.4c0,0.7-0.7,1.4-1.4,1.4c0,0-5.7,0-9.5,4C35.2,47.9,35,47.9,34.5,47.9z M27.3,41
	c-4.5-0.7-8.6-3.3-10.9-7.6c-3.1-5-3.8-11.4-1.7-16.2c0.2-0.5,0.7-0.7,1.2-1h0.5c2.6,0,5,0.5,7.1,1.4c1.7-2.6,3.3-5,5.5-6.4
	c0,0,0.2-0.2,0.5-0.2c0.5-0.2,1-0.2,1.2,0c0,0,0.2,0,0.2,0.2c1.9,1.4,3.8,3.6,5.5,6.7c2.1-1,4.8-1.4,7.4-1.4h0.5c0.5,0,1,0.2,1.2,1
	c1.9,4.5,1.2,11.2-1.7,16.2c-2.6,4.3-6.4,6.9-11.2,7.6"/>
<path id="XMLID_3_" class="st1" d="M31.4,47.7c0,0,0,1.4-1.4,1.4s-1.4-1.4-1.4-1.4v-7.9h2.6v7.9H31.4z"/>
</svg>
