<svg t="1509525620038" class="icon" style="" viewBox="0 0 1024 1024" version="1.1" xmlns="http://www.w3.org/2000/svg" p-id="31298" xmlns:xlink="http://www.w3.org/1999/xlink" width="200" height="200"><defs><style type="text/css"></style></defs><path d="M512 1024A512 512 0 1 0 512 0a512 512 0 0 0 0 1024z m299.584-650.176a22.4 22.4 0 0 1 6.912 16.448v130.816c0 12.288-1.664 24.32-4.8 35.968a136.384 136.384 0 0 1-34.944 59.904l-1.344 1.344c-22.848 22.4-49.984 35.392-81.536 39.04a225.408 225.408 0 0 1-42.752 48.64 219.52 219.52 0 0 1-117.504 50.688v59.584h102.08c6.4 0 11.904 2.304 16.704 6.848a21.888 21.888 0 0 1 7.232 16.448 23.04 23.04 0 0 1-7.232 16.768 22.912 22.912 0 0 1-16.704 7.232H385.6a25.6 25.6 0 0 1-16.768-7.168 25.792 25.792 0 0 1-5.12-7.616 21.888 21.888 0 0 1 5.12-25.664 23.552 23.552 0 0 1 16.768-6.848h102.784v-59.584a207.168 207.168 0 0 1-91.776-31.488 222.912 222.912 0 0 1-69.184-67.84A136.384 136.384 0 0 1 244.48 616.96 130.56 130.56 0 0 1 204.8 521.088V390.272a23.296 23.296 0 0 1 24-23.296h63.68V280.704c0-6.848 2.24-12.608 6.848-17.152a22.4 22.4 0 0 1 16.448-6.848h391.04a21.12 21.12 0 0 1 9.6 2.048 34.816 34.816 0 0 1 7.552 5.12 19.84 19.84 0 0 1 5.12 7.552 25.216 25.216 0 0 1 1.728 9.28v86.272h63.68c6.848 0 12.608 2.24 17.088 6.848zM285.312 590.592a102.528 102.528 0 0 0 16 10.624 232.704 232.704 0 0 1-8.832-58.88V414.144h-40.384v106.88c0 11.84 2.24 23.168 6.848 33.92 4.544 10.688 11.2 20.416 19.84 29.056 1.856 2.304 4.032 4.48 6.528 6.528zM683.52 304H339.84v236.992c0.448 27.328 6.848 53.12 19.136 77.312l0.64 0.64c7.36 14.208 16.448 26.88 27.456 38.08 10.944 11.2 22.912 20.736 35.968 28.8a168.896 168.896 0 0 0 88.704 24.96c31.488 0 61.056-8.32 88.64-24.96 27.648-16.704 48.704-38.976 63.36-66.816l0.64-0.64c4.16-7.808 7.552-15.744 10.304-24 2.752-8.192 4.928-16.64 6.528-25.344 1.6-8.704 2.368-17.344 2.368-26.048V304zM603.392 466.944a8.96 8.96 0 0 1 6.528 2.432 8.96 8.96 0 0 1 2.432 6.464 8.832 8.832 0 0 1-1.088 4.16 8.64 8.64 0 0 1-3.072 3.392l-51.328 36.992 19.84 60.992c1.792 5.44 0 9.088-5.44 10.88-3.2 0.96-5.952 0.512-8.256-1.28l-51.328-37.76-51.392 37.76C455.232 594.56 451.136 593.92 448 588.8a6.144 6.144 0 0 1-1.792-3.712c-0.192-1.6-0.128-2.88 0.384-3.84l19.84-60.928-52.032-37.696a5.952 5.952 0 0 1-2.368-2.368 6.592 6.592 0 0 1-1.088-3.456c0-1.088 0.128-2.24 0.384-3.392a12.8 12.8 0 0 1 1.024-3.072 12.864 12.864 0 0 1 7.552-3.456h63.68l19.84-60.928c1.792-5.504 5.44-7.296 11.008-5.504a10.88 10.88 0 0 1 5.44 5.504l19.84 60.928h63.68z m-26.688 17.856h-43.136a10.688 10.688 0 0 1-8.96-6.208l-12.928-41.088-13.056 40.448a12.8 12.8 0 0 1-1.664 3.392 9.472 9.472 0 0 1-3.136 2.432 9.28 9.28 0 0 1-4.096 1.024h-43.136l34.944 24.64c1.792 1.344 2.944 2.944 3.392 4.8a11.648 11.648 0 0 1 0 5.504l-12.992 41.024 34.24-25.344c3.648-2.688 7.296-2.688 10.88 0l34.304 25.344-12.992-41.024a11.52 11.52 0 0 1 0-5.504 6.656 6.656 0 0 1 2.752-4.096l35.584-25.344z m194.56-70.592h-40.448v128.064a226.88 226.88 0 0 1-8.96 58.944 94.08 94.08 0 0 0 21.952-15.744l1.344-1.408c17.408-18.24 26.048-39.232 26.048-62.976v-106.88z" p-id="31299"></path></svg>