<?xml version="1.0" encoding="utf-8"?>
<!-- Generator: Adobe Illustrator 19.0.0, SVG Export Plug-In . SVG Version: 6.00 Build 0)  -->
<svg version="1.1" id="图层_1" xmlns="http://www.w3.org/2000/svg" xmlns:xlink="http://www.w3.org/1999/xlink" x="0px" y="0px"
	 viewBox="0 0 60 60" style="enable-background:new 0 0 60 60;" xml:space="preserve">
<style type="text/css">
	.st0{fill:url(#XMLID_7_);}
	.st1{fill:#FFFFFF;}
</style>
<linearGradient id="XMLID_7_" gradientUnits="userSpaceOnUse" x1="30" y1="-1.166882e-009" x2="30" y2="60">
	<stop  offset="1.031525e-006" style="stop-color:#33A9FC"/>
	<stop  offset="1" style="stop-color:#6F87F9"/>
</linearGradient>
<path id="XMLID_1_" class="st0" d="M56,60H4c-2.2,0-4-1.8-4-4V4c0-2.2,1.8-4,4-4h52c2.2,0,4,1.8,4,4v52C60,58.2,58.2,60,56,60z"/>
<path id="XMLID_3_" class="st1" d="M31.9,36.7c1-0.6,1.7-1.8,1.7-3.1c0-2-1.6-3.6-3.6-3.6s-3.6,1.6-3.6,3.6c0,1.4,0.8,2.6,1.9,3.2
	v5.9c0,1,0.8,1.8,1.8,1.8c1,0,1.8-0.8,1.8-1.8V36.7z M42.1,25.1h2.4c1.4,0,2.4,1.1,2.4,2.4V47c0,1.3-1.1,2.4-2.4,2.4H15.4
	c-1.4,0-2.4-1.1-2.4-2.4V27.6c0-1.3,1.1-2.4,2.4-2.4h2.4v-2.4h4.9v2.4h14.6v-2.4h4.9V25.1z M20.3,22.7h2.4c0-4,3.3-7.3,7.3-7.3
	s7.3,3.3,7.3,7.3h2.4h2.4c0-6.7-5.4-12.1-12.1-12.1S17.9,16,17.9,22.7H20.3z"/>
</svg>
