<svg version="1.1" id="图层_1" xmlns="http://www.w3.org/2000/svg" xmlns:xlink="http://www.w3.org/1999/xlink" x="0px" y="0px"
	 viewBox="-122.7 -3.2 70 70" style="enable-background:new -122.7 -3.2 70 70;" xml:space="preserve">
<style type="text/css">
	.st0{fill:#FFF9E3;}
	.st1{fill:#CAEBFF;}
	.st2{fill:#33A9FC;}
	.st3{fill:#FFFFFF;}
</style>
<circle class="st0" cx="-87.7" cy="31.8" r="35"/>
<g>
	<path class="st1" d="M-108.1,45.8V17.6h36v28.3H-108.1z"/>
	<g>
		<path class="st2" d="M-85.7,32.8h-7.9v7.9c-4.4,0-7.9-3.5-7.9-7.9c0-4.4,3.5-7.9,7.9-7.9C-89.2,24.9-85.7,28.4-85.7,32.8
			L-85.7,32.8z"/>
		<path class="st2" d="M-91.8,34.6L-91.8,34.6h6.1c0,3.4-2.7,6.1-6.1,6.1V34.6L-91.8,34.6L-91.8,34.6z"/>
		<polygon class="st2" points="-81.5,28.4 -73.5,28.4 -73.5,30.2 -81.5,30.2 -81.5,28.4 		"/>
		<polygon class="st2" points="-81.5,31.6 -73.5,31.6 -73.5,33.4 -81.5,33.4 -81.5,31.6 		"/>
		<polygon class="st2" points="-81.5,35 -73.5,35 -73.5,36.8 -81.5,36.8 -81.5,35 		"/>
	</g>
	<path class="st2" d="M-72,50.6h4.6h0c0.9,0,1.7-0.8,1.7-1.7V17.9v0c0-0.9-0.8-1.7-1.7-1.7l0,0l0,0H-70H-72v-0.6v-1
		c0-0.9-0.7-1.6-1.6-1.6c-0.9,0-1.6,0.7-1.6,1.6v1v0.6h-6.2v-0.6v-1c0-0.9-0.7-1.6-1.6-1.6c-0.9,0-1.6,0.7-1.6,1.6v1v0.6h-5.2h-1.1
		v-0.6v-1c0-0.9-0.7-1.6-1.6-1.6c-0.9,0-1.6,0.7-1.6,1.6v1v0.6h-6.3v-0.6v-1c0-0.9-0.7-1.6-1.6-1.6c-0.9,0-1.6,0.7-1.6,1.6v1v0.6
		h-1.8h-2.7h0c-0.9,0-1.7,0.8-1.7,1.7v31v0c0,0.9,0.8,1.7,1.7,1.7h4.6 M-68.7,48.5h-37.8c-0.4,0-0.8-0.4-0.8-0.8V19.1
		c0-0.4,0.4-0.8,0.8-0.8h37.8c0.4,0,0.8,0.4,0.8,0.8v28.6C-67.9,48.1-68.3,48.5-68.7,48.5z"/>
	<path class="st3" d="M-96.9,20.4c-1.6,0-3.2,0-4.8,0c-0.8,0-1.7-0.1-2.4,0.4c-1.5,1.1-1.3,4.5-1.3,6.1c0,0.5,0.7,0.5,0.7,0
		c0.1-1.9-0.3-5.4,2.2-5.8c1.8-0.3,3.8,0,5.6,0C-96.4,21.2-96.4,20.4-96.9,20.4L-96.9,20.4z M-95.6,21.1l1.3-0.1
		c0.5,0,0.5-0.7,0-0.7l-1.3,0.1C-96.1,20.4-96.1,21.1-95.6,21.1z M-105,28.7c0.5,0,0.5-0.7,0-0.7S-105.4,28.7-105,28.7z"/>
</g>
</svg>