<svg xmlns="http://www.w3.org/2000/svg" xmlns:xlink="http://www.w3.org/1999/xlink" t="1511318779711" class="icon" style="" viewBox="0 0 1024 1024" version="1.1" p-id="1489" width="200" height="200"><defs><style type="text/css"/></defs><path d="M512.299 226.605L369.68 369.288H268.596c-26.267 0-47.567 21.302-47.567 47.567v190.252c0 26.287 21.3 47.566 47.567 47.566h101.08l142.623 142.725c26.263 0 47.545-21.302 47.545-47.568V274.171c0-26.266-21.28-47.566-47.545-47.566m0 521.576L387.492 610.483H268.596V420.236h118.896l124.807-137.719v465.667-0.003m281.89-215.319c4.695 0 8.492-9.345 8.492-20.864 0-11.515-3.797-20.863-8.492-20.863H734.71c-4.698 0-8.496 9.345-8.496 20.863 0 11.519 3.798 20.864 8.496 20.864h59.479m6.446-269.627c4.069-2.348 2.686-12.341-3.074-22.315-5.756-9.972-13.719-16.168-17.789-13.82l-51.508 29.739c-4.067 2.348-2.682 12.342 3.074 22.315 5.758 9.973 13.721 16.168 17.79 13.819l51.507-29.738m0 497.528c4.069 2.35 2.686 12.342-3.074 22.314-5.756 9.974-13.719 16.17-17.789 13.818l-51.508-29.732c-4.067-2.352-2.682-12.344 3.074-22.316 5.758-9.974 13.721-16.172 17.79-13.82l51.507 29.736M593.313 618.869c-4.242-11.417-3.071-22.245 8.346-26.487 28.83-13.308 42.593-39.207 46.112-71.691 4.104-37.9-14.035-72.729-45.346-87.076-10.243-6.586-14.481-18-7.896-28.244 6.59-10.24 18.004-14.481 28.243-7.895 46.382 26.935 74.173 73.767 68.31 127.908-4.695 43.314-31.041 84.281-71.287 101.832-9.404 5.322-22.014 1.829-26.483-8.344l0.001-0.003m0 0z" p-id="1490"/></svg>