<svg version="1.1" id="图层_1" xmlns="http://www.w3.org/2000/svg" xmlns:xlink="http://www.w3.org/1999/xlink" x="0px" y="0px"
	 viewBox="0 0 200 200" style="enable-background:new 0 0 200 200;" xml:space="preserve">
<style type="text/css">
	.st0{fill:#2594D8;}
	.st1{fill:#00B9F2;}
	.st2{fill-rule:evenodd;clip-rule:evenodd;fill:#0AE58B;}
	.st3{fill:#0AE58B;}
	.st4{fill:#00E588;}
	.st5{font-family:'PingFang-SC-Bold';}
	.st6{font-size:30px;}
	.st7{fill:#52FFB4;}
</style>
<g id="XMLID_1_">
	<circle id="XMLID_4_" class="st0" cx="72.1" cy="60.4" r="3.6"/>
	<path id="XMLID_7_" class="st0" d="M123.7,40.9c-10.2-0.6-17.5,5.2-23.7,13.7c-0.3,0.4,0,0.9,0.4,0.9c2.1,0,6.8,0,8.7,0
		c0.4,0,0.8-0.2,1.1-0.4c10.5-9.6,25.8-2.9,29.8,6.3c7.9,18.2-11.4,38.9-41.4,63.4c-0.1,0.1,0.1,0.1,0,0
		c-3.1-2.2-37.6-27.2-38.9-46.5c-0.4-6.4,0.2-11.5,9.8-15.3c0.2-0.1,0.5,0,0.6,0.1c0.5,0.6,1.6,0.9,2.4,0.8c2.2-0.1,3.3-1.2,3.4-3.3
		c0.1-2.5-2.4-4.4-5-3.2c-1.1,0.5-1.9,1.5-1.9,2.7c0,0.2,0.4,0,0.1,0c-7.6,1.4-17.4,7.6-16.3,19.2c0.9,10.5,12.1,28.4,45.4,54.9
		c0.2,0.2,0.5,0.2,0.7,0c3-2.5,25.2-20.9,39-37.2C156.2,75,154.1,42.6,123.7,40.9z"/>
	<path id="XMLID_6_" class="st1" d="M98.4,55.5c-0.7,0-1-0.6-0.8-1c1.7-3.4,9.9-16.2,30.3-13c0,0-21-0.3-27.8,14
		c0,0-0.1,0.1-0.1,0.1L98.4,55.5z"/>
	<g id="XMLID_10_">
		<path id="XMLID_55_" class="st2" d="M143.2,41.6L143.2,41.6c0.1-1,0.9-1.7,1.9-1.5c2.7,0.6,7.4,2.4,7.8,8.8c0.1,1-0.7,1.8-1.7,1.7
			l0,0c-0.8,0-1.4-0.6-1.5-1.4c-0.2-1.9-1.1-5.2-5.3-6C143.7,43.1,143.2,42.4,143.2,41.6z"/>
		<path id="XMLID_54_" class="st3" d="M143.5,36.3L143.5,36.3c0.1-1.1,0.9-1.8,1.9-1.6c3.8,0.7,12.3,3.5,12.9,14.5
			c0.1,0.9-0.7,1.7-1.7,1.7v0c-0.8,0-1.5-0.7-1.5-1.5c-0.2-3-1.5-9.9-10.2-11.4C144.1,37.8,143.5,37.1,143.5,36.3z"/>
		<path id="XMLID_26_" class="st3" d="M143.9,30.2l0-0.3c0.1-0.9,0.9-1.6,1.8-1.5c4.8,0.6,18.2,3.8,18.8,21.2c0,0.9-0.7,1.7-1.7,1.7
			h0c-0.9,0-1.5-0.7-1.6-1.5c-0.2-4.1-1.9-15.3-16.1-17.9C144.4,31.7,143.9,31,143.9,30.2z"/>
	</g>
	<circle id="XMLID_24_" class="st3" cx="72.1" cy="60.4" r="1.9"/>
	<g id="XMLID_80_">
		<path id="XMLID_82_" class="st4" d="M108,76.9l0.8-8c0.3-3.2-1.9-5.9-4.8-5.9l-2.5,0c-2.9-0.1-5.5,2.5-5.7,5.7l-0.6,8L108,76.9z"
			/>
		<path id="XMLID_81_" class="st4" d="M93.8,92.8L93,103.4c-0.3,3.2,1.9,5.9,4.8,5.9l2.5,0c2.9,0.1,5.5-2.5,5.7-5.7l0.9-10.6
			L93.8,92.8z"/>
	</g>
	<path id="XMLID_79_" class="st4" d="M115.9,78.4l-29.5-0.5c-2.7,0-5.2,2.4-5.4,5.4L80.7,86c-0.2,3,1.8,5.6,4.5,5.6l29.5,0.5
		c2.7,0,5.2-2.4,5.4-5.4l0.2-2.7C120.6,81,118.6,78.5,115.9,78.4z"/>
	<path id="XMLID_75_" class="st4" d="M80.7,86c-0.2,3,1.8,5.6,4.5,5.6l29.5,0.5c2.7,0,5.2-2.4,5.4-5.4l0.2-2.7
		c0.2-3-1.8-5.6-4.5-5.6l-29.5-0.5c-2.7,0-5.2,2.4-5.4,5.4"/>
	<path id="XMLID_71_" class="st4" d="M115.9,78.4l-29.5-0.5c-2.7,0-5.2,2.4-5.4,5.4L80.7,86c-0.2,3,1.8,5.6,4.5,5.6l29.5,0.5
		c2.7,0,5.2-2.4,5.4-5.4l0.2-2.7C120.6,81,118.6,78.5,115.9,78.4z"/>
	<path id="XMLID_27_" class="st4" d="M80.7,86c-0.2,3,1.8,5.6,4.5,5.6l29.5,0.5c2.7,0,5.2-2.4,5.4-5.4l0.2-2.7
		c0.2-3-1.8-5.6-4.5-5.6l-29.5-0.5c-2.7,0-5.2,2.4-5.4,5.4"/>
	<text id="XMLID_5_" transform="matrix(1 0 0 1 33.8332 163.2313)"><tspan x="0" y="0" class="st0 st5 st6">Medi</tspan><tspan x="69.9" y="0" class="st4 st5 st6">cine</tspan></text>
	<path id="XMLID_18_" class="st7" d="M103.8,63.8l-2.3,0c-0.1,0-0.3,0-0.4,0l1.4,0c2.6,0,4.5,2.4,4.2,5.3l-0.7,7.1l1.3,0l0.7-7.1
		C108.3,66.2,106.4,63.8,103.8,63.8z"/>
	<path id="XMLID_15_" class="st7" d="M104.5,93.8l-0.8,9.8c-0.2,2.8-2.3,5-4.8,5.3l1.1,0c2.7,0,5-2.3,5.3-5.3l0.8-9.8"/>
</g>
</svg>