<svg version="1.1" id="图层_1" xmlns="http://www.w3.org/2000/svg" xmlns:xlink="http://www.w3.org/1999/xlink" x="0px" y="0px"
	 viewBox="0 0 30 30" style="enable-background:new 0 0 30 30;" xml:space="preserve">
<style type="text/css">
	.st0{fill:#999999;}
</style>
<path id="XMLID_6_" class="st0" d="M26.7,30H3.3c-1.1,0-1.9-0.9-1.9-1.9V14.2c0-1.1,0.9-1.9,1.9-1.9h23.4c1.1,0,1.9,0.9,1.9,1.9
	v13.9C28.6,29.1,27.8,30,26.7,30z M3.3,13.5c-0.4,0-0.6,0.3-0.6,0.7v13.9c0,0.4,0.3,0.6,0.6,0.6h23.4c0.4,0,0.6-0.3,0.6-0.6V14.2
	c0-0.4-0.3-0.6-0.6-0.7H3.3z"/>
<path id="XMLID_2_" class="st0" d="M23.3,13.2c-0.4,0-0.6-0.3-0.6-0.6v0V9c0-4.2-3.4-7.7-7.7-7.7c-4.2,0-7.7,3.5-7.7,7.7v3.6
	c0,0.4-0.3,0.6-0.6,0.6h0c-0.4,0-0.6-0.3-0.6-0.6v0V9c0-5,4-9,9-9c5,0,9,4,9,9v3.6C24,12.9,23.7,13.2,23.3,13.2
	C23.3,13.2,23.3,13.2,23.3,13.2z M16.9,25.5H13v-3.3c-0.9-0.6-1.4-1.6-1.4-2.7c0-1.9,1.5-3.4,3.4-3.4c1.9,0,3.4,1.5,3.4,3.4
	c0,1.1-0.5,2.1-1.4,2.7V25.5z M14.3,24.2h1.3v-2.8l0.3-0.2c0.7-0.4,1.1-1.1,1.1-1.8c0-1.1-0.9-2.1-2.1-2.1c-1.1,0-2.1,0.9-2.1,2.1
	c0,0.7,0.4,1.4,1.1,1.8l0.3,0.2L14.3,24.2L14.3,24.2z"/>
</svg>