<svg t="1498205485294" class="icon" style="" viewBox="0 0 1024 1024" version="1.1" xmlns="http://www.w3.org/2000/svg" p-id="28021" xmlns:xlink="http://www.w3.org/1999/xlink" width="32" height="32"><defs><style type="text/css"></style></defs><path d="M678.4 1017.6l64-160 153.6 83.2-147.2-409.6c-6.4-19.2-32-32-51.2-25.6l-147.2 51.2c-19.2 6.4-32 32-25.6 51.2l153.6 409.6z m-390.4-153.6l64 160 147.2-409.6c12.8-19.2 0-44.8-19.2-51.2l-147.2-57.6c-19.2-6.4-38.4 6.4-44.8 25.6l-147.2 409.6 147.2-76.8z" fill="#63C2ED" p-id="28022"></path><path d="M512 787.2l-185.6 12.8-102.4-153.6-128-134.4 51.2-172.8 25.6-185.6 172.8-64L512 0l160 89.6 172.8 64 25.6 185.6 51.2 172.8-128 134.4-102.4 153.6-179.2-12.8z" fill="#D1DFE8" p-id="28023"></path><path d="M512 691.2c147.2 0 268.8-121.6 268.8-268.8S659.2 153.6 512 153.6 243.2 275.2 243.2 422.4s121.6 268.8 268.8 268.8z" fill="#A2B5C1" p-id="28024"></path><path d="M646.4 576H371.2c0-25.6 12.8-51.2 25.6-76.8 12.8-19.2 44.8-51.2 89.6-83.2 25.6-19.2 38.4-32 51.2-44.8 6.4-12.8 12.8-19.2 12.8-32s-6.4-19.2-12.8-25.6c-12.8-6.4-19.2-12.8-32-12.8s-25.6 6.4-25.6 12.8-12.8 19.2-12.8 38.4l-96-6.4c6.4-25.6 12.8-44.8 19.2-64s25.6-25.6 44.8-38.4c19.2-6.4 44.8-12.8 70.4-12.8s57.6 6.4 76.8 12.8 32 19.2 44.8 32c12.8 19.2 12.8 38.4 12.8 57.6s-6.4 38.4-19.2 57.6-32 38.4-64 64c-19.2 6.4-32 19.2-38.4 25.6-6.4 0-12.8 6.4-19.2 19.2H640V576h6.4z" fill="#E0ECF3" p-id="28025"></path></svg>