<svg t="1498205474364" class="icon" style="" viewBox="0 0 1024 1024" version="1.1" xmlns="http://www.w3.org/2000/svg" p-id="27348" xmlns:xlink="http://www.w3.org/1999/xlink" width="32" height="32"><defs><style type="text/css"></style></defs><path d="M736 864l153.6 83.2-147.2-409.6c-6.4-19.2-32-32-51.2-25.6l-147.2 51.2c-19.2 6.4-25.6 32-19.2 51.2l147.2 409.6 64-160z m-448 0l64 160 147.2-409.6c12.8-19.2 0-44.8-19.2-51.2l-147.2-57.6c-19.2-6.4-38.4 6.4-44.8 25.6l-147.2 409.6c-6.4 0 147.2-76.8 147.2-76.8z" fill="#9B9CCD" p-id="27349"></path><path d="M512 787.2l-185.6 12.8-102.4-153.6-128-134.4 51.2-172.8 25.6-185.6 172.8-64L512 0l160 89.6 172.8 64 25.6 185.6 51.2 172.8-128 134.4-102.4 153.6-179.2-12.8z" fill="#D09680" p-id="27350"></path><path d="M512 691.2c147.2 0 268.8-121.6 268.8-268.8S659.2 153.6 512 153.6 243.2 275.2 243.2 422.4s121.6 268.8 268.8 268.8z" fill="#A97B6A" p-id="27351"></path><path d="M467.2 364.8l-89.6-19.2c6.4-25.6 19.2-51.2 44.8-64 19.2-12.8 44.8-25.6 83.2-25.6 44.8 0 70.4 6.4 89.6 25.6 19.2 12.8 32 32 32 64 0 12.8-6.4 25.6-12.8 38.4 0 6.4-12.8 19.2-32 25.6 12.8 6.4 25.6 6.4 32 12.8 12.8 6.4 19.2 19.2 25.6 25.6 6.4 12.8 6.4 25.6 6.4 38.4 0 19.2-6.4 38.4-12.8 51.2-12.8 19.2-19.2 38.4-38.4 44.8s-44.8 19.2-76.8 19.2-51.2-6.4-70.4-12.8-25.6-19.2-38.4-32-19.2-32-25.6-51.2l89.6-12.8c6.4 19.2 6.4 32 12.8 38.4 6.4 6.4 12.8 12.8 32 12.8 12.8 0 25.6-6.4 32-12.8 6.4-12.8 12.8-19.2 12.8-32s-6.4-25.6-12.8-32c-6.4-12.8-19.2-19.2-32-19.2-6.4 0-12.8 0-32 6.4l6.4-64h12.8c12.8 0 25.6-6.4 32-12.8 6.4-6.4 12.8-12.8 12.8-25.6s-6.4-19.2-6.4-25.6c-6.4 0-19.2-6.4-25.6-6.4-12.8 0-19.2 6.4-32 12.8-6.4 6.4-19.2 12.8-19.2 32z" fill="#F3C3AA" p-id="27352"></path></svg>