<svg t="1498205498489" class="icon" style="" viewBox="0 0 1024 1024" version="1.1" xmlns="http://www.w3.org/2000/svg" p-id="28698" xmlns:xlink="http://www.w3.org/1999/xlink" width="32" height="32"><defs><style type="text/css"></style></defs><path d="M736 864l153.6 83.2-147.2-409.6c-6.4-19.2-32-32-51.2-25.6l-147.2 51.2c-19.2 6.4-25.6 25.6-19.2 51.2l147.2 409.6 64-160z m-448 0l64 160 147.2-409.6c12.8-25.6 0-44.8-19.2-51.2l-147.2-57.6c-19.2-6.4-38.4 6.4-44.8 25.6l-147.2 409.6 147.2-76.8z" fill="#E14B49" p-id="28699"></path><path d="M512 793.6l-185.6 12.8-102.4-147.2-128-134.4 51.2-179.2 25.6-179.2 172.8-64L512 0l160 96 172.8 64 25.6 179.2 51.2 179.2-128 134.4-102.4 147.2c6.4 6.4-179.2-6.4-179.2-6.4z" fill="#F5D73E" p-id="28700"></path><path d="M512 691.2c147.2 0 268.8-121.6 268.8-268.8S659.2 153.6 512 153.6 243.2 275.2 243.2 422.4c0 147.2 115.2 268.8 268.8 268.8z" fill="#E0B335" p-id="28701"></path><path d="M582.4 243.2V576H492.8V358.4c-12.8 12.8-32 19.2-44.8 25.6-12.8 12.8-32 19.2-51.2 19.2V326.4c25.6-6.4 51.2-19.2 70.4-32 19.2-12.8 32-32 44.8-57.6l70.4 6.4z" fill="#F9E999" p-id="28702"></path></svg>