<?xml version="1.0" encoding="utf-8"?>
<!-- Generator: Adobe Illustrator 19.0.0, SVG Export Plug-In . SVG Version: 6.00 Build 0)  -->
<svg version="1.1" id="图层_1" xmlns="http://www.w3.org/2000/svg" xmlns:xlink="http://www.w3.org/1999/xlink" x="0px" y="0px"
	 viewBox="-76.8 225.9 56 50.1" style="enable-background:new -76.8 225.9 56 50.1;" xml:space="preserve">
<style type="text/css">
	.st0{fill:#F4EA2A;}
	.st1{fill:#FFFFFF;}
	.st2{font-family:'PingFang-SC-Bold';}
	.st3{font-size:26px;}
</style>
<path class="st0" d="M-76.8,243.5l0.1-0.5c0.3-1.5,1.3-2.5,2.8-2.8c1.3-0.3,2.8,0.3,3.6,1.5c0.8,1.2,0.9,2.7,0.1,3.9
	c-0.1,0.1-0.1,0.3-0.3,0.4l8.4,3.6c1.1,0.4,2.1,0.9,3.2,1.3c0.7,0.3,1.1,0.1,1.2-0.5c2.1-5.9,4.3-11.6,6.4-17.4
	c-1.3-0.4-2.4-1.3-2.7-2.8c-0.3-1.1,0-2,0.7-2.8c1.2-1.6,3.6-1.9,5.2-0.5c1.7,1.6,1.5,3.7-0.5,5.7c0.9,1.3,2,2.5,2.9,3.9
	c2.7,3.6,5.5,7.2,8.1,10.6c0.7,0.8,0.9,0.8,1.7,0.3c3.1-2.5,6-5.1,9-7.6l0.4-0.4c-0.8-0.5-1.3-1.3-1.5-2.3c-0.4-1.7,0.7-3.5,2.3-4
	c1.7-0.5,3.6,0.1,4.4,1.9c0,0.1,0.1,0.3,0.3,0.4l0.1,1.2c-0.3,1.9-1.3,3.1-3.3,3.5c0,0.3-0.1,0.4-0.1,0.7l-2.8,20.8
	c-0.1,0.9-0.4,1.2-1.3,1.3l-33.4,4.9c-0.9,0.1-1.2,0-1.6-0.9c-2.4-5.2-4.8-10.4-7.2-15.4c-0.7-1.3-1.3-2.8-2-4.1
	c-1.5,0.3-2.7-0.1-3.6-1.3c-0.3-0.3-0.4-0.7-0.5-0.9C-76.6,244.3-76.6,243.9-76.8,243.5L-76.8,243.5z M-44.6,268.5l15.6-2.4
	c1.3-0.3,2.7,0.7,3.1,1.9c0.4,1.3-0.4,2.7-1.6,3.2c-0.1,0.1-0.4,0.1-0.5,0.1l-31.4,4.7c-1.2,0.1-2.3-0.4-2.8-1.5
	c-0.5-1.1-0.4-2.3,0.5-3.1c0.4-0.4,1.1-0.7,1.6-0.8C-54.9,270-49.8,269.3-44.6,268.5L-44.6,268.5z"/>
<text transform="matrix(1 0 0 1 -55.1665 262.3336)" class="st1 st2 st3">1</text>
</svg>
