<?xml version="1.0" standalone="no"?><!DOCTYPE svg PUBLIC "-//W3C//DTD SVG 1.1//EN" "http://www.w3.org/Graphics/SVG/1.1/DTD/svg11.dtd"><svg t="1512524918714" class="icon" style="" viewBox="0 0 1024 1024" version="1.1" xmlns="http://www.w3.org/2000/svg" p-id="4017" xmlns:xlink="http://www.w3.org/1999/xlink" width="200" height="200"><defs><style type="text/css"></style></defs><path d="M994.437707 273.119401l0 448.914196c0 7.193843-3.796466 13.876032-9.977235 17.570167s-13.855566 3.857864-20.200064 0.440022l-265.261433-142.833079c-9.946536-5.351891-13.671371-17.764596-8.319479-27.721365 5.362124-9.946536 17.774829-13.671371 27.731598-8.319479l235.094366 126.59321 0-380.38338-235.094366 126.59321c-6.344498 3.417843-14.019295 3.243881-20.200064-0.450255-6.191003-3.694135-9.977235-10.366092-9.977235-17.570167l0-203.985858L76.214822 211.966623l0 571.219753 632.485095 0c11.307533 0 20.466124 9.15859 20.466124 20.466124 0 11.2973-9.15859 20.466124-20.466124 20.466124L55.748698 824.118624c-11.307533 0-20.466124-9.168824-20.466124-20.466124l0-612.152001c0-11.307533 9.15859-20.466124 20.466124-20.466124l652.951219 0c11.307533 0 20.466124 9.15859 20.466124 20.466124l0 190.19169 235.094366-126.59321c6.344498-3.417843 14.019295-3.243881 20.200064 0.450255C990.641241 259.243369 994.437707 265.915325 994.437707 273.119401z" p-id="4018"></path></svg>