<svg xmlns="http://www.w3.org/2000/svg" xmlns:xlink="http://www.w3.org/1999/xlink" version="1.1" x="0px" y="0px" viewBox="0 0 1000 1000" enable-background="new 0 0 1000 1000" xml:space="preserve">
<style type="text/css">
	.st0{fill:#ff8c00;}
</style>
<g><path class="st0" d="M800.1,549c42.9-49,67.4-104.1,67.4-171.5V255c0-134.8-110.3-245-245-245c-18.4,0-36.8,0-55.1,6.1c42.9,30.6,73.5,73.5,91.9,122.5C708.3,157,745,199.9,745,255v122.5c0,55.1-36.8,98-85.8,116.4c-6.1,12.3-12.3,24.5-18.4,36.8c49,36.8,85.8,79.6,116.4,128.6c55.1,30.6,98,85.8,110.3,147c0,36.8-24.5,61.3-61.3,61.3h-6.1c-12.3,49-36.8,91.9-73.5,122.5h79.6C910.4,990,990,910.4,990,806.3C971.6,696,898.1,598,800.1,549z M555.1,549c42.9-49,67.4-104.1,67.4-171.5V255c0-134.8-110.3-245-245-245s-245,110.3-245,245v122.5c0,67.4,24.5,122.5,67.4,171.5C101.9,598,28.4,696,10,806.3C10,910.4,89.6,990,193.8,990h367.5C665.4,990,745,910.4,745,806.3C726.6,696,653.1,598,555.1,549z M255,255c0-67.4,55.1-122.5,122.5-122.5S500,187.6,500,255v122.5c0,67.4-55.1,122.5-122.5,122.5S255,444.9,255,377.5V255z M561.3,867.5H193.8c-36.8,0-61.3-24.5-61.3-61.3c24.5-104.1,128.6-183.8,245-183.8s220.5,79.6,245,183.8C622.5,843,598,867.5,561.3,867.5z"/></g>
</svg>