<svg version="1.1" id="图层_1" xmlns="http://www.w3.org/2000/svg" xmlns:xlink="http://www.w3.org/1999/xlink" x="0px" y="0px"
	 viewBox="-268.8 391.9 22 14.7" style="enable-background:new -268.8 391.9 22 14.7;" xml:space="preserve">
<style type="text/css">
	.st0{fill:#8C8C8C;}
</style>
<g>
	<path class="st0" d="M-257.8,391.9c-5,0-9.2,3-11,7.4c1.8,4.3,6,7.4,11,7.4c5,0,9.2-3,11-7.4C-248.6,394.9-252.8,391.9-257.8,391.9
		z M-257.8,405.5c-4.4,0-8.2-2.6-10-6.3c1.8-3.7,5.6-6.3,10-6.3c4.4,0,8.2,2.6,10,6.3C-249.6,402.9-253.4,405.5-257.8,405.5z"/>
	<path class="st0" d="M-257.8,395.3c-2.3,0-4.1,1.8-4.1,3.9c0,2.2,1.8,3.9,4.1,3.9c2.3,0,4.1-1.8,4.1-3.9
		C-253.7,397.1-255.6,395.3-257.8,395.3z M-257.8,402.1c-1.7,0-3-1.3-3-2.9c0-1.6,1.3-2.9,3-2.9c1.7,0,3,1.3,3,2.9
		C-254.8,400.8-256.2,402.1-257.8,402.1z"/>
	<path class="st0" d="M-257.8,396.8"/>
</g>
</svg>