<svg version="1.1" id="图层_1" xmlns="http://www.w3.org/2000/svg" xmlns:xlink="http://www.w3.org/1999/xlink" x="0px" y="0px"
	 viewBox="0 0 30 30" style="enable-background:new 0 0 30 30;" xml:space="preserve">
<style type="text/css">
	.st0{fill:#999999;}
	.st1{fill:#FFFFFF;}
</style>
<path id="XMLID_4_" class="st0" d="M15,0C6.7,0,0,6.7,0,15s6.7,15,15,15s15-6.7,15-15S23.3,0,15,0"/>
<path id="XMLID_3_" class="st1" d="M21.3,21.3c-0.4,0.4-1.1,0.4-1.5,0L15,16.5l-4.8,4.8c-0.4,0.4-1.1,0.4-1.5,0
	c-0.4-0.4-0.4-1.1,0-1.5l4.8-4.8l-4.8-4.8c-0.4-0.4-0.4-1.1,0-1.5c0.4-0.4,1.1-0.4,1.5,0l4.8,4.8l4.8-4.8c0.4-0.4,1.1-0.4,1.5,0
	c0.4,0.4,0.4,1.1,0,1.5L16.5,15l4.8,4.8C21.8,20.2,21.8,20.9,21.3,21.3"/>
</svg>