<svg version="1.1" id="图层_1" xmlns="http://www.w3.org/2000/svg" xmlns:xlink="http://www.w3.org/1999/xlink" x="0px" y="0px"
	 viewBox="-19 21 60 60" style="enable-background:new -19 21 60 60;" xml:space="preserve">
<style type="text/css">
	.st0{fill:url(#XMLID_3_);}
	.st1{fill:#FFFFFF;}
</style>
<linearGradient id="XMLID_3_" gradientUnits="userSpaceOnUse" x1="11" y1="121" x2="11" y2="61" gradientTransform="matrix(1 0 0 1 0 -40)">
	<stop  offset="1.649467e-006" style="stop-color:#A17AEB"/>
	<stop  offset="1" style="stop-color:#3DA5FB"/>
</linearGradient>
<path id="XMLID_1_" class="st0" d="M37,81h-52c-2.2,0-4-1.8-4-4V25c0-2.2,1.8-4,4-4h52c2.2,0,4,1.8,4,4v52C41,79.2,39.2,81,37,81z"
	/>
<path class="st1" d="M10.1,50.2c5.7,0,10.3-4.6,10.3-10.3c0-5.7-4.6-10.3-10.3-10.3S-0.2,34.3-0.2,39.9S4.4,50.2,10.1,50.2z
	 M15.5,70V58c0-1.3,1-2.3,2.3-2.3h4.5c-3.3-2.5-7.6-3.9-12.1-3.9C2.5,51.7-4.3,56-7.7,62.9c-0.2,0.5-0.7,2-0.7,3
	c0.1,3.9,2.3,6.3,5.9,6.5h20.2C16.5,72.3,15.5,71.3,15.5,70z M17.7,72.3h3.9H17.7z"/>
<path class="st1" d="M28.2,61.6c0,0.6-0.4,1.1-1,1.1h-4.1c-0.5,0-1-0.5-1-1.1c0-0.6,0.4-1.1,1-1.1h4.1C27.8,60.5,28.2,61,28.2,61.6z
	 M27.2,66.3h-6.9c-0.5,0-1-0.5-1-1.1s0.4-1.1,1-1.1h6.9c0.5,0,1,0.5,1,1.1C28.2,65.8,27.8,66.3,27.2,66.3z M28.6,57.6h-9.3
	c-1,0-1.8,0.8-1.8,1.8v9.3c0,1,0.8,1.8,1.8,1.8h9.3c1,0,1.8-0.8,1.8-1.8v-9.3C30.4,58.4,29.6,57.6,28.6,57.6z"/>
</svg>
