<?xml version="1.0" encoding="utf-8"?>
<!-- Generator: Adobe Illustrator 19.0.0, SVG Export Plug-In . SVG Version: 6.00 Build 0)  -->
<svg version="1.1" id="图层_1" xmlns="http://www.w3.org/2000/svg" xmlns:xlink="http://www.w3.org/1999/xlink" x="0px" y="0px"
	 viewBox="0 0 60 60" style="enable-background:new 0 0 60 60;" xml:space="preserve">
<style type="text/css">
	.st0{fill:url(#XMLID_7_);}
	.st1{fill:#FFFFFF;}
</style>
<linearGradient id="XMLID_7_" gradientUnits="userSpaceOnUse" x1="30" y1="-1.166882e-009" x2="30" y2="60">
	<stop  offset="1.649467e-006" style="stop-color:#A17AEB"/>
	<stop  offset="1" style="stop-color:#3DA5FB"/>
</linearGradient>
<path id="XMLID_1_" class="st0" d="M56,60H4c-2.2,0-4-1.8-4-4V4c0-2.2,1.8-4,4-4h52c2.2,0,4,1.8,4,4v52C60,58.2,58.2,60,56,60z"/>
<path id="XMLID_3_" class="st1" d="M49,34.1l-5.2,1.7l2.4,4.7l-5.7,5.7l-4.7-2.4L34.1,49h-8l-1.7-5.2l-4.7,2.4L14,40.5l2.4-4.7
	L11,34.1V26l5.4-1.7L14,19.6l5.7-5.7l4.7,2.4l1.7-5.3h8l1.7,5.3l4.7-2.4l5.7,5.7l-2.4,4.7L49,26V34.1z M30.1,19.8
	c-5.6,0-10.1,4.5-10.1,10.1C20,35.5,24.6,40,30.1,40c5.6,0,10.1-4.5,10.1-10.1C40.2,24.3,35.7,19.8,30.1,19.8z M30.1,34.4
	c-2.5,0-4.5-2-4.5-4.5c0-2.5,2-4.5,4.5-4.5c2.5,0,4.5,2,4.5,4.5C34.7,32.4,32.6,34.4,30.1,34.4z"/>
</svg>
