<?xml version="1.0" encoding="utf-8"?>
<!-- Generator: Adobe Illustrator 19.0.0, SVG Export Plug-In . SVG Version: 6.00 Build 0)  -->
<svg version="1.1" id="图层_1" xmlns="http://www.w3.org/2000/svg" xmlns:xlink="http://www.w3.org/1999/xlink" x="0px" y="0px"
	 viewBox="0 0 60 60" style="enable-background:new 0 0 60 60;" xml:space="preserve">
<style type="text/css">
	.st0{fill:url(#XMLID_9_);}
	.st1{fill:#FFFFFF;}
</style>
<linearGradient id="XMLID_9_" gradientUnits="userSpaceOnUse" x1="30" y1="60" x2="30" y2="-1.166882e-009">
	<stop  offset="2.043588e-007" style="stop-color:#39A7FB"/>
	<stop  offset="1" style="stop-color:#7286F9"/>
</linearGradient>
<path id="XMLID_1_" class="st0" d="M56,60H4c-2.2,0-4-1.8-4-4V4c0-2.2,1.8-4,4-4h52c2.2,0,4,1.8,4,4v52C60,58.2,58.2,60,56,60z"/>
<path id="XMLID_6_" class="st1" d="M39.1,28.1c-5.5,0-9.9,4.7-9.9,10.5c0,5.8,4.4,10.5,9.9,10.5c5.5,0,9.9-4.7,9.9-10.5
	C49,32.7,44.6,28.1,39.1,28.1z M42,43.8c-0.8,1.7-2,2-4.3,1.7c-2.3-0.3-4.2-6.6-4.6-8.6c-0.4-2,1.2-2.2,1.9-2.2
	c0.7,0,0.8,0.3,1.7,2.2c0.9,1.9,1.9,4.3,2.7,4.3c0,0,1.6-3.7,2-5.1c0.4-1.4,1.2-1.7,1.8-1.5c0.7,0.2,1.5,1.1,1.5,1.8
	C44.8,37,42.8,42.1,42,43.8z"/>
<path id="XMLID_3_" class="st1" d="M34.8,21.5c0-5.8-4.4-10.5-9.9-10.5S15,15.7,15,21.5c0,3.9,2,7.2,4.9,9.1c-2.8,1-8.8,3.7-8.8,8
	c0,5.7-0.7,7.8,2.6,8.4c2.1,0.4,7.2,0.5,10.5,0.5c1.9,0,4.3,0,6.4-0.1c-2-2.4-3.1-5.5-3.1-9c0-2.6,0.9-5.6,2.1-7.7
	C32.7,28.9,34.8,25.5,34.8,21.5z M24.2,38.3l-2.4-6.8c1,0.3,2,0.5,3.1,0.5c0.5,0,1,0,1.6-0.1L24.2,38.3z"/>
</svg>
