<svg version="1.1" id="图层_1" xmlns="http://www.w3.org/2000/svg" xmlns:xlink="http://www.w3.org/1999/xlink" x="0px" y="0px"
	 viewBox="-329.1 344.7 112 101" style="enable-background:new -329.1 344.7 112 101;" xml:space="preserve">
<style type="text/css">
	.st0{fill:#008CFF;}
	.st1{fill:url(#SVGID_1_);}
	.st2{fill:url(#SVGID_2_);}
</style>
<g>
	<path class="st0" d="M-222.1,445.7h-102c-2.8,0-5-2.3-5-5v-91c0-2.8,2.3-5,5-5h102c2.8,0,5,2.3,5,5v91
		C-217.1,443.4-219.4,445.7-222.1,445.7z"/>
		<linearGradient id="SVGID_1_" gradientUnits="userSpaceOnUse" x1="-305.3178" y1="393.5354" x2="-240.9178" y2="393.5354">
			<stop  offset="2.043588e-007" style="stop-color:#DFFAFF"/>
			<stop  offset="1" style="stop-color:#FFFFFF"/>
		</linearGradient>
		<path class="st1" d="M-246.7,387.4h-36.8l36.1-11.4c2.8-0.9,4.4-3.9,3.5-6.7l-2.1-6.7c-0.9-2.8-3.9-4.4-6.7-3.5l-48.8,15.4
			c-2.8,0.9-4.4,3.9-3.5,6.7l2.1,6.7c0.2,0.5,0.4,1,0.7,1.4c-0.9,1-1.5,2.4-1.5,3.8v29.1c0,3.2,2.6,5.8,5.8,5.8h51.2
			c3.2,0,5.8-2.6,5.8-5.8v-29.1C-240.9,390-243.5,387.4-246.7,387.4z M-250.7,363.5c0.2,0.1,0.3,0.3,0.4,0.5l2.1,6.7
			c0.2,0.5-0.1,1-0.6,1.1l-3.3,1L-250.7,363.5z M-263.3,367.1l5.6-1.8l-1.5,9.7l-5.6,1.8L-263.3,367.1z M-275.9,371.1l5.6-1.8
			l-1.5,9.7l-5.6,1.8L-275.9,371.1z M-297,387l-0.6,0.2c-0.5,0.2-1-0.1-1.1-0.6l-2.1-6.6c-0.2-0.5,0.1-1,0.6-1.1l4.7-1.5L-297,387z
			 M-290,384.8l1.5-9.7l5.6-1.8l-1.5,9.7L-290,384.8z M-265.5,409.6l-9.4,8.1c-0.6,0.5-1.4,0.8-2.2,0.8c-0.4,0-0.8-0.1-1.2-0.2
			c-1.1-0.4-1.9-1.3-1.9-2.4v-16.1c0-1.1,0.8-2,1.9-2.4s2.5-0.2,3.3,0.6l9.4,8.1C-264.3,407-264.3,408.6-265.5,409.6z"/>
		<linearGradient id="SVGID_2_" gradientUnits="userSpaceOnUse" x1="-246.4774" y1="407.7835" x2="-240.5696" y2="407.7835">
			<stop  offset="2.043588e-007" style="stop-color:#DFFAFF"/>
			<stop  offset="1" style="stop-color:#FFFFFF"/>
		</linearGradient>
	<path class="st2" d="M-246.5,428.1c3.3,0,5.9-2.6,5.9-5.8v-29.1c0-3.2-2.7-5.8-5.9-5.8"/>
</g>
</svg>