<svg version="1.1" id="图层_1" xmlns="http://www.w3.org/2000/svg" xmlns:xlink="http://www.w3.org/1999/xlink" x="0px" y="0px"
	 viewBox="0 0 30 30" style="enable-background:new 0 0 30 30;" xml:space="preserve">
<style type="text/css">
	.st0{fill:#999999;stroke:#999999;stroke-width:0.2;stroke-miterlimit:10;}
</style>
<path id="XMLID_2_" class="st0" d="M22,0H8C6.8,0,5.8,1,5.8,2.2v25.6C5.8,29,6.8,30,8,30H22c1.2,0,2.2-1,2.2-2.2V2.2
	C24.2,1,23.2,0,22,0z M23,27.8c0,0.6-0.4,1-1,1H8c-0.6,0-1-0.5-1-1V2.2c0-0.6,0.4-1,1-1H22c0.6,0,1,0.5,1,1V27.8z M16.8,25.1h-3.6
	c-0.3,0-0.6,0.3-0.6,0.6s0.3,0.6,0.6,0.6h3.6c0.3,0,0.6-0.3,0.6-0.6S17.1,25.1,16.8,25.1z"/>
</svg>