<?xml version="1.0" standalone="no"?><!DOCTYPE svg PUBLIC "-//W3C//DTD SVG 1.1//EN" "http://www.w3.org/Graphics/SVG/1.1/DTD/svg11.dtd"><svg t="1512524858255" class="icon" style="" viewBox="0 0 1024 1024" version="1.1" xmlns="http://www.w3.org/2000/svg" p-id="1862" xmlns:xlink="http://www.w3.org/1999/xlink" width="200" height="200"><defs><style type="text/css"></style></defs><path d="M397.466965 599.653339l244.523109-157.162436L397.466965 285.34484 397.466965 599.653339 397.466965 599.653339zM397.466965 599.653339" p-id="1863"></path><path d="M874.536408 761.854535 148.900773 761.854535c-50.492998 0-91.574648-41.081651-91.574648-91.574648L57.326125 218.508619c0-50.492998 41.081651-91.573625 91.574648-91.573625l725.635635 0c50.498114 0 91.577718 41.080627 91.577718 91.573625l0 451.770244C966.114127 720.772884 925.034523 761.854535 874.536408 761.854535L874.536408 761.854535zM148.900773 168.477133c-27.587312 0-50.03251 22.444175-50.03251 50.031487l0 451.770244c0 27.588335 22.444175 50.03251 50.03251 50.03251l725.635635 0c27.592428 0 50.03558-22.444175 50.03558-50.03251L924.571988 218.508619c0-27.587312-22.444175-50.031487-50.03558-50.031487L148.900773 168.477133 148.900773 168.477133zM148.900773 168.477133" p-id="1864"></path><path d="M662.025387 895.000997 361.419981 895.000997c-11.467169 0-20.769023-9.296737-20.769023-20.769023s9.301853-20.774139 20.769023-20.774139l300.605406 0c11.467169 0 20.769023 9.301853 20.769023 20.774139S673.492556 895.000997 662.025387 895.000997L662.025387 895.000997zM662.025387 895.000997" p-id="1865"></path></svg>