<svg version="1.1" id="图层_1" xmlns="http://www.w3.org/2000/svg" xmlns:xlink="http://www.w3.org/1999/xlink" x="0px" y="0px"
	 viewBox="-110.8 10.4 41 46.7" style="enable-background:new -110.8 10.4 41 46.7;" xml:space="preserve">
<style type="text/css">
	.st0{fill:#6E6E6E;}
</style>
<path class="st0" d="M-90.2,10.4c-7.5,0-13.7,6.1-13.7,13.7c0,5.4,3.1,10,7.7,12.3c-3.2,1-6.1,2.7-8.5,5.1c-3.9,3.9-6,9-6,14.5
	c0,0.6,0.5,1.1,1.1,1.1c0.6,0,1.1-0.5,1.1-1.1c0-4.9,1.9-9.5,5.3-12.9c3.3-3.3,7.7-5.2,12.4-5.3c0.2,0,0.3,0,0.5,0
	c7.5,0,13.7-6.1,13.7-13.7C-76.6,16.5-82.7,10.4-90.2,10.4L-90.2,10.4L-90.2,10.4z M-90.1,35.4c-0.1,0-0.1,0-0.2,0
	c-0.2,0-0.3,0-0.5,0c-6-0.3-10.9-5.3-10.9-11.4c0-6.3,5.1-11.4,11.4-11.4c6.3,0,11.4,5.1,11.4,11.4C-78.8,30.3-83.9,35.3-90.1,35.4
	L-90.1,35.4L-90.1,35.4L-90.1,35.4z"/>
<path class="st0" d="M-90.3,10.4L-90.3,10.4c-7.5,0-13.7,6.1-13.7,13.7c0,7.5,6.1,13.7,13.7,13.7c0.2,0,0.3,0,0.5,0
	c4.7,0.1,9.1,2,12.4,5.3c3.4,3.4,5.3,8,5.3,12.9c0,0.6,0.5,1.1,1.1,1.1c0.6,0,1.1-0.5,1.1-1.1c0-5.5-2.1-10.6-6-14.5
	c-2.4-2.4-5.3-4.1-8.5-5.1c4.5-2.2,7.7-6.9,7.7-12.3C-76.6,16.5-82.8,10.4-90.3,10.4L-90.3,10.4z M-90.5,35.4L-90.5,35.4L-90.5,35.4
	c-6.2-0.1-11.2-5.2-11.2-11.4c0-6.3,5.1-11.4,11.4-11.4c6.3,0,11.4,5.1,11.4,11.4c0,6.1-4.8,11.1-10.9,11.4c-0.2,0-0.3,0-0.5,0
	C-90.4,35.4-90.4,35.4-90.5,35.4L-90.5,35.4z"/>
</svg>