<svg version="1.1" id="图层_1" xmlns="http://www.w3.org/2000/svg" xmlns:xlink="http://www.w3.org/1999/xlink" x="0px" y="0px"
	 viewBox="-110.8 10.4 41 46.7" style="enable-background:new -110.8 10.4 41 46.7;" xml:space="preserve">
<style type="text/css">
	.st0{fill:#33A9FC;}
</style>
<path class="st0" d="M-70.8,57.1c0.6,0,1.1-0.5,1.1-1.1c0-5.5-2.1-10.6-6-14.5c-2.4-2.4-5.3-4.1-8.5-5.1c4.5-2.2,7.7-6.9,7.7-12.3
	c0-7.5-6.1-13.7-13.7-13.7c0,0,0,0,0,0c0,0,0,0,0,0c-7.5,0-13.7,6.1-13.7,13.7c0,5.4,3.1,10,7.7,12.3c-3.2,1-6.1,2.7-8.5,5.1
	c-3.9,3.9-6,9-6,14.5c0,0.6,0.5,1.1,1.1,1.1"/>
</svg>