<svg version="1.1" id="图层_1" xmlns="http://www.w3.org/2000/svg" xmlns:xlink="http://www.w3.org/1999/xlink" x="0px" y="0px"
	 viewBox="0 0 60 60" style="enable-background:new 0 0 60 60;" xml:space="preserve">
<style type="text/css">
	.st0{fill:url(#XMLID_3_);}
	.st1{fill:#FFFFFF;}
</style>
<linearGradient id="XMLID_3_" gradientUnits="userSpaceOnUse" x1="30" y1="-1.166882e-009" x2="30" y2="60" gradientTransform="matrix(1 0 0 -1 0 60)">
	<stop  offset="1.649467e-006" style="stop-color:#A17AEB"/>
	<stop  offset="1" style="stop-color:#3DA5FB"/>
</linearGradient>
<path id="XMLID_1_" class="st0" d="M56,60H4c-2.2,0-4-1.8-4-4V4c0-2.2,1.8-4,4-4h52c2.2,0,4,1.8,4,4v52C60,58.2,58.2,60,56,60z"/>
<g>
	<path class="st1" d="M49.1,38.8c0,1.7-1.4,3.1-3.1,3.1l-32.4,0c-1.5,0-2.7-1.2-2.7-2.7c0,0,0,0,0,0V15.5c0-1.5,1.2-2.7,2.7-2.7
		h15.5c-0.1-0.1-0.1-0.3-0.1-0.5v-0.9c0-0.8,0.6-1.4,1.4-1.4c0.8,0,1.4,0.6,1.4,1.4v0.9c0,0.2,0,0.3-0.1,0.5h14.6
		c1.5,0,2.7,1.2,2.7,2.7c0,0,0,0,0,0v10.1V38.8L49.1,38.8z M27.3,23.7c-0.5,0-0.9,0.2-0.9,0.5v10c0,0.3,0.4,0.5,0.9,0.5
		c0.5,0,0.9-0.2,0.9-0.5v-10C28.2,23.9,27.8,23.7,27.3,23.7z M21.8,27.3c-0.5,0-0.9,0.1-0.9,0.3v6.7c0,0.2,0.4,0.3,0.9,0.3
		c0.5,0,0.9-0.1,0.9-0.3v-6.7C22.7,27.5,22.3,27.3,21.8,27.3z M38.2,20c-0.5,0-0.9,0.3-0.9,0.6V34c0,0.3,0.4,0.6,0.9,0.6
		c0.5,0,0.9-0.3,0.9-0.6V20.6C39.1,20.3,38.7,20,38.2,20z M32.7,25.5c-0.5,0-0.9,0.2-0.9,0.5v8.1c0,0.3,0.4,0.5,0.9,0.5
		c0.5,0,0.9-0.2,0.9-0.5V26C33.6,25.7,33.2,25.5,32.7,25.5z"/>
	<path class="st1" d="M26,40.5L20.5,50l-2.4-1.4l5.5-9.5L26,40.5z"/>
	<path class="st1" d="M34.5,40.5L40,50l2.4-1.4l-5.5-9.5L34.5,40.5z"/>
</g>
</svg>