<?xml version="1.0" encoding="utf-8"?>
<!-- Generator: Adobe Illustrator 19.0.0, SVG Export Plug-In . SVG Version: 6.00 Build 0)  -->
<svg version="1.1" id="图层_1" xmlns="http://www.w3.org/2000/svg" xmlns:xlink="http://www.w3.org/1999/xlink" x="0px" y="0px"
	 viewBox="0 0 60 60" style="enable-background:new 0 0 60 60;" xml:space="preserve">
<style type="text/css">
	.st0{fill:url(#XMLID_6_);}
	.st1{fill:#FFFFFF;}
</style>
<linearGradient id="XMLID_6_" gradientUnits="userSpaceOnUse" x1="30" y1="-1.166882e-009" x2="30" y2="60">
	<stop  offset="4.135833e-007" style="stop-color:#33A9FC"/>
	<stop  offset="1" style="stop-color:#AE74E8"/>
</linearGradient>
<path id="XMLID_1_" class="st0" d="M56,60H4c-2.2,0-4-1.8-4-4V4c0-2.2,1.8-4,4-4h52c2.2,0,4,1.8,4,4v52C60,58.2,58.2,60,56,60z"/>
<path id="XMLID_3_" class="st1" d="M41.8,11.5H18.2c-2.6,0-4.7,2.1-4.7,4.6v32.4h2.2l4.9-3.5l4.7,3.5L30,45l4.7,3.5l4.7-3.5l4.9,3.5
	h2.2V16.1C46.5,13.6,44.4,11.5,41.8,11.5z M34.9,29.5L36,36L30,33L24,36l1.1-6.5l-4.9-4.6l6.7-1l3-6l3,6l6.7,1L34.9,29.5z"/>
</svg>
