<svg version="1.1" id="图层_1" xmlns="http://www.w3.org/2000/svg" xmlns:xlink="http://www.w3.org/1999/xlink" x="0px" y="0px"
	 viewBox="-299.2 371.4 52 52" style="enable-background:new -299.2 371.4 52 52;" xml:space="preserve">
<style type="text/css">
	.st0{fill:#7286F9;}
</style>
<path class="st0" d="M-249.3,381c-1.4-1.5-3.4-2.2-5.3-2.2h-3.7c-1,0-1.9-0.4-2.6-1.1c-0.7-0.7-1.1-1.7-1.1-2.6l0,0
	c0-0.9-0.4-1.9-1.1-2.6c-0.7-0.7-1.7-1.1-2.6-1.1h-14.9c-0.9,0-1.9,0.4-2.6,1.1c-0.7,0.7-1.1,1.7-1.1,2.6l0,0c0,1-0.4,1.9-1.1,2.6
	c-0.7,0.7-1.7,1.1-2.6,1.1h-3.7c-1.9,0-3.8,0.7-5.3,2.2c-1.5,1.5-2.2,3.4-2.2,5.3v29.7c0,1.9,0.7,3.8,2.2,5.3
	c1.4,1.5,3.4,2.2,5.3,2.2h37.1c1.9,0,3.8-0.7,5.3-2.2c1.5-1.5,2.2-3.4,2.2-5.3v-29.7C-247.2,384.3-247.9,382.4-249.3,381z
	 M-291.7,386.2h3.7v3.7h-3.7V386.2z M-262,393.7c0,6.2-5,11.1-11.1,11.1c-6.2,0-11.1-5-11.1-11.1c0-6.2,5-11.1,11.1-11.1
	C-267,382.5-262,387.5-262,393.7z"/>
</svg>