<svg version="1.1" id="图层_1" xmlns="http://www.w3.org/2000/svg" xmlns:xlink="http://www.w3.org/1999/xlink" x="0px" y="0px"
	 viewBox="-123.1 1.2 70 70" style="enable-background:new -123.1 1.2 70 70;" xml:space="preserve">
<style type="text/css">
	.st0{fill:#FFF9E3;}
	.st1{fill:#CAEBFF;}
	.st2{fill:none;stroke:#33A9FC;stroke-width:1.8;stroke-miterlimit:10;}
	.st3{fill:#33A9FC;}
	.st4{fill:none;stroke:#FFFFFF;stroke-width:0.5;stroke-linecap:round;stroke-linejoin:round;stroke-miterlimit:10;}
</style>
<circle class="st0" cx="-88.1" cy="36.2" r="35"/>
<g>
	<path class="st1" d="M-86.3,14.8l-16.5,16.6c-0.2,0.2-0.3,0.4-0.3,0.6v0c0,0.8,0.3,1.6,0.8,2.2c0.5,0.6,1.1,0.9,1.7,0.9h2.2
		c0.5,0,0.8,0.4,0.8,0.9v16.2c0,2.5,1.8,3.4,3.3,3.4l20,0l0.2-0.3c1.2,0,0.4,0.2,1.1-0.8c0.4-0.6,0.6-1.1,0.7-1.4c0-0.1,0-0.2,0-0.3
		l1.5-16.2l5-3"/>
	<path class="st2" d="M-66.1,32L-66.1,32c-2.1-2-20.8-19.4-20.9-19.5c-0.2-0.2-0.6-0.3-1.1-0.3c-0.4,0-0.8,0.1-1,0.3l-20.4,19.4
		c-0.2,0.2-0.3,0.4-0.3,0.6v0c0,0.8,0.3,1.6,0.8,2.3c0.5,0.6,1.2,1,1.8,1h2.4c0.5,0,0.9,0.4,0.9,0.9V53c0,2.5,1.9,3.4,3.5,3.4
		l21.3,0h3.7c1.3,0,2.4-0.6,3.2-1.7c0.4-0.6,0.6-1.2,0.7-1.4c0-0.1,0-0.2,0-0.3l0.1-16.5c0-0.5,0.4-0.9,0.9-0.9h2.3
		c0.9,0,1.6-0.4,2-1c0.3-0.5,0.5-1.2,0.5-2C-65.8,32.4-65.9,32.2-66.1,32z"/>
	<path class="st3" d="M-82,37.6H-86c-0.4,0-0.7,0.3-0.7,0.7v3.9c0,0.8-0.6,1.4-1.4,1.4c-0.8,0-1.4-0.6-1.4-1.4v-3.9
		c0-0.4-0.3-0.7-0.7-0.7h-4.1c-0.8,0-1.4-0.6-1.4-1.4s0.6-1.4,1.4-1.4h4.1c0.4,0,0.7-0.3,0.7-0.7v-3.9c0-0.8,0.6-1.4,1.4-1.4
		s1.4,0.6,1.4,1.4v3.9c0,0.4,0.3,0.7,0.7,0.7h4.1c0.8,0,1.4,0.6,1.4,1.4S-81.2,37.6-82,37.6z"/>
	<line class="st4" x1="-82.1" y1="21.1" x2="-80.7" y2="22.2"/>
	<line class="st4" x1="-78.7" y1="23.9" x2="-73.3" y2="28.9"/>
</g>
</svg>