<svg version="1.1" id="图层_1" xmlns="http://www.w3.org/2000/svg" xmlns:xlink="http://www.w3.org/1999/xlink" x="0px" y="0px"
	 viewBox="-283 370.4 52 52" style="enable-background:new -283 370.4 52 52;" xml:space="preserve">
<style type="text/css">
	.st0{fill:#33A9FC;}
</style>
<path class="st0" d="M-248.5,402.8l-11.8,8.3c-1,0.7-2.5,0.5-3.3-0.5c0,0,0,0,0,0c-0.4-0.6-0.6-1.4-0.3-2c-0.1-0.3-0.2-0.5-0.2-0.8
	v-13.5c0-0.2,0.1-0.4,0.1-0.5c-0.2-0.6-0.1-1.3,0.3-1.9c0.8-1,2.2-1.3,3.3-0.6l11.8,7.8c1.1,0.7,1.3,2.1,0.6,3.1
	C-248.1,402.5-248.3,402.7-248.5,402.8 M-235.7,379.7h-13.9l3-6.1c0.5-1.1,0-2.5-1.2-3c-1.2-0.5-2.6,0-3.1,1.1l-3.9,8h-6l-3.9-8
	c-0.5-1.1-1.9-1.6-3.1-1.1c-1.2,0.5-1.7,1.9-1.2,3l3,6.1h-12.2c-2.6,0-4.7,2-4.7,4.5v33.7c0,2.5,2.1,4.5,4.7,4.5h42.6
	c2.6,0,4.7-2,4.7-4.5v-33.7C-231,381.7-233.1,379.7-235.7,379.7"/>
</svg>