<svg version="1.1" id="图层_1" xmlns="http://www.w3.org/2000/svg" xmlns:xlink="http://www.w3.org/1999/xlink" x="0px" y="0px"
	 viewBox="-301.5 371 57 52" style="enable-background:new -301.5 371 57 52;" xml:space="preserve">
<style type="text/css">
	.st0{fill:#7286F9;}
</style>
<path class="st0" d="M-269.8,419.1c0,0,13.1-4.5,23.2,4v-4C-258.5,412.3-269.8,419.1-269.8,419.1z M-301.5,375.4v43.4
	c0,0,5.7-4.2,13.7-4.2c8,0,13.7,4.2,13.7,4.2V376c0,0-5.7-4.9-13.7-4.9C-295.8,371-301.5,375.4-301.5,375.4z M-297.3,379.8h8.4v10.9
	h-8.4V379.8z M-278.3,408.2h-19V406h19V408.2z M-278.3,403.8h-19v-2.2h19V403.8z M-278.3,399.4h-19v-2.2h19V399.4z M-278.3,395.1
	h-19v-2.2h19V395.1z M-286.7,379.8h8.4v2.2h-8.4V379.8z M-286.7,384.1h8.4v2.2h-8.4V384.1z M-286.7,388.5h8.4v2.2h-8.4V388.5z
	 M-258.2,371c-8,0-13.7,4.4-13.7,4.4v43.4c0,0,5.7-4.2,13.7-4.2c8,0,13.7,4.2,13.7,4.2V376C-244.5,376-250.2,371-258.2,371z
	 M-248.7,408.2h-19V406h19V408.2z M-248.7,403.8h-19v-2.2h19V403.8z M-248.7,399.4h-19v-2.2h19V399.4z M-248.7,395.1h-19v-2.2h19
	V395.1z M-248.7,390.7h-19v-2.2h19V390.7z M-248.7,386.3h-19v-2.2h19V386.3z M-248.7,382h-19v-2.2h19V382z M-299.4,419.1v4
	c10.2-8.5,23.2-4,23.2-4S-287.5,412.3-299.4,419.1z"/>
</svg>