<?xml version="1.0" encoding="utf-8"?>
<!-- Generator: Adobe Illustrator 19.0.0, SVG Export Plug-In . SVG Version: 6.00 Build 0)  -->
<svg version="1.1" id="图层_1" xmlns="http://www.w3.org/2000/svg" xmlns:xlink="http://www.w3.org/1999/xlink" x="0px" y="0px"
	 viewBox="0 0 60 60" style="enable-background:new 0 0 60 60;" xml:space="preserve">
<style type="text/css">
	.st0{fill:url(#XMLID_7_);}
	.st1{fill:#FFFFFF;}
</style>
<linearGradient id="XMLID_7_" gradientUnits="userSpaceOnUse" x1="30" y1="60" x2="30" y2="-1.166882e-009">
	<stop  offset="1.649467e-006" style="stop-color:#A17AEB"/>
	<stop  offset="1" style="stop-color:#3DA5FB"/>
</linearGradient>
<path id="XMLID_1_" class="st0" d="M56,60H4c-2.2,0-4-1.8-4-4V4c0-2.2,1.8-4,4-4h52c2.2,0,4,1.8,4,4v52C60,58.2,58.2,60,56,60z"/>
<path id="XMLID_4_" class="st1" d="M27.7,30.2c0,5.1,4.6,4.7,4.6,4.7H49v-9.8H32.7C32.7,25.1,27.7,24.7,27.7,30.2z M34.5,29.8
	c0,0.9-0.8,1.7-1.7,1.7c-0.9,0-1.7-0.8-1.7-1.7c0,0,0,0,0,0c0-0.9,0.8-1.7,1.7-1.7C33.7,28.1,34.5,28.8,34.5,29.8z"/>
<path id="XMLID_3_" class="st1" d="M46.4,11H13.6c-1.4,0-2.6,1.1-2.6,2.6v32.9c0,1.4,1.1,2.6,2.6,2.6h32.9c1.4,0,2.6-1.1,2.6-2.6
	V36.2H30.9c0,0-4.5-0.1-4.5-6c0-6.4,5-6.4,5-6.4H49V13.6C49,12.1,47.9,11,46.4,11z"/>
</svg>
