<svg xmlns="http://www.w3.org/2000/svg" xmlns:xlink="http://www.w3.org/1999/xlink" version="1.1" id="图层_1" x="0px" y="0px" viewBox="0 0 50 50" style="enable-background:new 0 0 50 50;" xml:space="preserve">
<style type="text/css">
	.st0{fill:none;}
	.st1{fill:#54C610;}
</style>
<line id="XMLID_3_" class="st0" x1="38.7" y1="5.7" x2="38.7" y2="5.5"/>
<path id="XMLID_14_" class="st1" d="M24.4,17.7c1.2,0,1.9-0.8,1.9-1.9c0-1.2-0.8-1.9-1.9-1.9c-1.2,0-2.3,0.8-2.3,1.9  C22.1,16.9,23.3,17.7,24.4,17.7z M13.6,13.8c-1.2,0-2.3,0.8-2.3,1.9c0,1.2,1.2,1.9,2.3,1.9s1.9-0.8,1.9-1.9  C15.5,14.6,14.8,13.8,13.6,13.8z M29.4,25c-0.8,0-1.5,0.8-1.5,1.5c0,0.8,0.8,1.5,1.5,1.5c1.2,0,1.9-0.8,1.9-1.5  C31.4,25.8,30.6,25,29.4,25z M37.9,25c-0.8,0-1.5,0.8-1.5,1.5c0,0.8,0.8,1.5,1.5,1.5c1.2,0,1.9-0.8,1.9-1.5  C39.9,25.8,39.1,25,37.9,25z"/>
<path id="XMLID_10_" class="st1" d="M44.5,0h-39C2.5,0,0,2.5,0,5.5v39c0,3,2.5,5.5,5.5,5.5h39c3,0,5.5-2.5,5.5-5.5v-39  C50,2.5,47.5,0,44.5,0z M18.6,33.5c-1.9,0-3.5-0.4-5.4-0.8l-5.4,2.7l1.5-4.6c-3.9-2.7-6.2-6.2-6.2-10.4c0-7.4,7-13.1,15.5-13.1  c7.6,0,14.3,4.6,15.6,10.9c-0.5-0.1-1-0.1-1.5-0.1c-7.3,0-13.1,5.5-13.1,12.2c0,1.1,0.2,2.2,0.5,3.2C19.6,33.5,19.1,33.5,18.6,33.5z   M41.4,38.9l1.2,3.9l-4.2-2.3c-1.5,0.4-3.1,0.8-4.6,0.8c-7.4,0-13.1-5-13.1-11.2c0-6.2,5.8-11.2,13.1-11.2c6.9,0,13.1,5,13.1,11.2  C46.8,33.5,44.5,36.6,41.4,38.9z"/>
</svg>