<svg version="1.1" id="图层_1" xmlns="http://www.w3.org/2000/svg" xmlns:xlink="http://www.w3.org/1999/xlink" x="0px" y="0px"
	 viewBox="-100.2 23 24.1 22" style="enable-background:new -100.2 23 24.1 22;" xml:space="preserve">
<style type="text/css">
	.st0{fill:#999999;}
</style>
<path class="st0" d="M-87.3,44.7l10.8-11c0.5-0.5,0.5-1.2,0-1.7c-0.5-0.5-1.2-0.5-1.7,0l-10.1,10.2L-98.2,32c-0.5-0.5-1.2-0.5-1.7,0
	c-0.5,0.5-0.5,1.2,0,1.7l10.8,11c0.2,0.3,0.6,0.4,0.9,0.3C-87.8,45.1-87.5,45-87.3,44.7L-87.3,44.7L-87.3,44.7L-87.3,44.7
	L-87.3,44.7z M-88.2,36.4c0.3,0,0.7-0.1,0.9-0.3l10.8-11c0.5-0.5,0.5-1.2,0-1.7c-0.5-0.5-1.2-0.5-1.7,0l-10.1,10.2l-10.1-10.2
	c-0.5-0.5-1.2-0.5-1.7,0c-0.5,0.5-0.5,1.2,0,1.7l10.8,11C-88.8,36.3-88.5,36.4-88.2,36.4L-88.2,36.4L-88.2,36.4L-88.2,36.4z"/>
</svg>