<?xml version="1.0" encoding="utf-8"?>
<!-- Generator: Adobe Illustrator 19.0.0, SVG Export Plug-In . SVG Version: 6.00 Build 0)  -->
<svg version="1.1" id="图层_1" xmlns="http://www.w3.org/2000/svg" xmlns:xlink="http://www.w3.org/1999/xlink" x="0px" y="0px"
	 viewBox="0 0 60 60" style="enable-background:new 0 0 60 60;" xml:space="preserve">
<style type="text/css">
	.st0{fill:url(#XMLID_6_);}
	.st1{fill:#FFFFFF;}
</style>
<linearGradient id="XMLID_6_" gradientUnits="userSpaceOnUse" x1="30" y1="60" x2="30" y2="-1.166882e-009">
	<stop  offset="1.031525e-006" style="stop-color:#33A9FC"/>
	<stop  offset="1" style="stop-color:#6F87F9"/>
</linearGradient>
<path id="XMLID_1_" class="st0" d="M56,60H4c-2.2,0-4-1.8-4-4V4c0-2.2,1.8-4,4-4h52c2.2,0,4,1.8,4,4v52C60,58.2,58.2,60,56,60z"/>
<path id="XMLID_3_" class="st1" d="M43.2,36.4c0-3.2,0-12.8,0-12.8c0-7.1-5.9-12.8-13.2-12.8s-13.2,5.7-13.2,12.8c0,0,0,9.6,0,12.8
	c0,3.2-3.3,6.4-3.3,6.4h33C46.5,42.8,43.2,39.6,43.2,36.4z M30,49.2c2.7,0,4.9-1.4,4.9-3.2H25C25,47.8,27.3,49.2,30,49.2z"/>
</svg>
