<?xml version="1.0" encoding="utf-8"?>
<!-- Generator: Adobe Illustrator 19.0.0, SVG Export Plug-In . SVG Version: 6.00 Build 0)  -->
<svg version="1.1" id="图层_1" xmlns="http://www.w3.org/2000/svg" xmlns:xlink="http://www.w3.org/1999/xlink" x="0px" y="0px"
	 viewBox="0 0 60 60" style="enable-background:new 0 0 60 60;" xml:space="preserve">
<style type="text/css">
	.st0{fill:url(#XMLID_4_);}
	.st1{fill:#FFFFFF;}
</style>
<linearGradient id="XMLID_4_" gradientUnits="userSpaceOnUse" x1="30" y1="-1.166882e-009" x2="30" y2="60">
	<stop  offset="8.223008e-007" style="stop-color:#A976E9"/>
	<stop  offset="1" style="stop-color:#3DA5FB"/>
</linearGradient>
<path id="XMLID_1_" class="st0" d="M56,60H4c-2.2,0-4-1.8-4-4V4c0-2.2,1.8-4,4-4h52c2.2,0,4,1.8,4,4v52C60,58.2,58.2,60,56,60z"/>
<path id="XMLID_3_" class="st1" d="M48.1,30.6c0,0-1.8-3-3.8-3c-2,0-4.1,3.1-4.1,3.1s-2.2-3.1-4-3.1c-1.5,0-3.3,2.1-3.8,2.7v11.7
	c0,1.2-0.1,2.2-0.4,3c-0.2,0.8-0.6,1.5-1.1,2c-0.5,0.5-1.1,0.9-1.8,1.1c-0.7,0.2-1.5,0.3-2.4,0.3c-0.8,0-1.6-0.1-2.2-0.4
	c-0.7-0.3-1.2-0.6-1.7-1.1c-0.5-0.5-0.8-1-1-1.7c-0.2-0.7-0.4-1.4-0.4-2.2V42h3.2c0,1.1,0,2.4,0.4,3c0.4,0.5,1,0.8,1.8,0.8
	c0.5,0,1.3-0.3,1.3-0.3s0.6-0.4,0.8-0.7c0.2-0.3,0.4-1.1,0.4-1.1s0.1-0.9,0.1-1.5V30.2c-0.7-0.8-2.5-2.6-3.9-2.6c-1.8,0-4.3,3-4.3,3
	s-2.4-3-4-3c-1.6,0-3.9,3-3.9,3s-0.7-15.7,15.2-17.3l2.3-3.2l2.2,3.2C49.3,14.2,48.1,30.6,48.1,30.6z"/>
</svg>
