<svg xmlns="http://www.w3.org/2000/svg" xmlns:xlink="http://www.w3.org/1999/xlink" version="1.1" id="图层_1" x="0px" y="0px" viewBox="-273 413 16 16" style="enable-background:new -273 413 16 16;" xml:space="preserve">
<path d="M-258.4,413h-13.2c-0.8,0-1.4,0.6-1.4,1.4v10.5c0,0.8,0.6,1.4,1.4,1.4h2.8v2.3c0,0.3,0.3,0.5,0.6,0.5  c0.1,0,0,0,0,0c0.2,0,0.4-0.1,0.5-0.2l2.7-2.6h6.6c0.8,0,1.4-0.6,1.4-1.4v-10.5C-257,413.6-257.6,413-258.4,413z M-257.9,424.3  c0,0.5-0.4,0.9-0.9,0.9h-6.5c0,0-0.1,0.1-0.2,0.1l-2.2,2.1v-1.8c0-0.2-0.2-0.4-0.5-0.4h-2.8c-0.5,0-0.9-0.4-0.9-0.9V415  c0-0.5,0.4-0.9,0.9-0.9h12.2c0.5,0,0.9,0.4,0.9,0.9V424.3z M-269.7,419.4c0,0.2,0.1,0.5,0.3,0.6c0.2,0.2,0.4,0.3,0.7,0.3  c0.2,0,0.5-0.1,0.7-0.3c0.2-0.2,0.3-0.4,0.3-0.6c0-0.2-0.1-0.5-0.3-0.6c-0.2-0.2-0.4-0.3-0.7-0.3c-0.2,0-0.5,0.1-0.7,0.3  C-269.6,418.9-269.7,419.2-269.7,419.4z M-265.9,419.4c0,0.2,0.1,0.5,0.3,0.6c0.2,0.2,0.4,0.3,0.7,0.3c0.2,0,0.5-0.1,0.7-0.3  s0.3-0.4,0.3-0.6c0-0.2-0.1-0.5-0.3-0.6s-0.4-0.3-0.7-0.3c-0.2,0-0.5,0.1-0.7,0.3C-265.8,418.9-265.9,419.2-265.9,419.4z   M-262.2,419.4c0,0.2,0.1,0.5,0.3,0.6c0.2,0.2,0.4,0.3,0.7,0.3c0.2,0,0.5-0.1,0.7-0.3c0.2-0.2,0.3-0.4,0.3-0.6  c0-0.2-0.1-0.5-0.3-0.6c-0.2-0.2-0.4-0.3-0.7-0.3c-0.2,0-0.5,0.1-0.7,0.3C-262.1,418.9-262.2,419.2-262.2,419.4z"/>
</svg>