<?xml version="1.0" encoding="utf-8"?>
<!-- Generator: Adobe Illustrator 19.0.0, SVG Export Plug-In . SVG Version: 6.00 Build 0)  -->
<svg version="1.1" id="图层_1" xmlns="http://www.w3.org/2000/svg" xmlns:xlink="http://www.w3.org/1999/xlink" x="0px" y="0px"
	 viewBox="0 0 60 60" style="enable-background:new 0 0 60 60;" xml:space="preserve">
<style type="text/css">
	.st0{fill:url(#XMLID_9_);}
	.st1{fill:#FFFFFF;}
</style>
<linearGradient id="XMLID_9_" gradientUnits="userSpaceOnUse" x1="60" y1="30" x2="-2.334673e-009" y2="30">
	<stop  offset="1.649467e-006" style="stop-color:#A17AEB"/>
	<stop  offset="1" style="stop-color:#3DA5FB"/>
</linearGradient>
<path id="XMLID_1_" class="st0" d="M56,60H4c-2.2,0-4-1.8-4-4V4c0-2.2,1.8-4,4-4h52c2.2,0,4,1.8,4,4v52C60,58.2,58.2,60,56,60z"/>
<path id="XMLID_3_" class="st1" d="M26.2,48.9v-3.8H49v3.8H26.2z M33.8,37.5H49v3.8H33.8V37.5z M41.4,29.9H49v3.8h-7.6V29.9z
	 M35.7,17l5.9-5.9l6.8,6.8l-5.9,5.9L35.7,17z M19.5,47L11,48.9l1.5-9.3l21.3-21.3l7,7.4L19.5,47z"/>
</svg>
