<svg version="1.1" id="图层_1" xmlns="http://www.w3.org/2000/svg" xmlns:xlink="http://www.w3.org/1999/xlink" x="0px" y="0px"
	 viewBox="0 0 30 30" style="enable-background:new 0 0 30 30;" xml:space="preserve">
<style type="text/css">
	.st0{fill:#999999;}
</style>
<path id="XMLID_2_" class="st0" d="M21.2,9.9L13,18.5l-4.2-4.4c-0.3-0.3-0.8-0.3-1,0c-0.3,0.3-0.3,0.8,0,1.1l4.7,4.9
	c0.1,0.2,0.3,0.2,0.5,0.2c0.2,0,0.4-0.1,0.5-0.2l8.7-9.1c0.3-0.3,0.3-0.8,0-1.1C21.9,9.6,21.5,9.6,21.2,9.9z M27.5,4.2
	c-0.4-0.3-0.9-0.5-1.4-0.5c0,0-0.1,0-0.1,0c0,0-0.4,0-0.9,0c-0.8,0-2.5-0.1-4-0.4c-2-0.5-4.3-2.6-5-3C15.7,0.1,15.3,0,15,0
	c-0.4,0-0.8,0.1-1.1,0.3c-0.1,0.1-2.5,2.5-4.9,3C7.4,3.7,5.7,3.7,4.9,3.7c-0.5,0-0.8,0-0.9,0c0,0-0.1,0-0.1,0c-0.5,0-1,0.2-1.4,0.5
	C2.1,4.6,1.9,5.1,1.9,5.6v4.7c0,17.4,12.2,19.6,12.7,19.7c0.1,0,0.2,0,0.4,0c0.1,0,0.2,0,0.4,0c0.5-0.1,12.8-2.3,12.8-19.7V5.6
	C28.1,5.1,27.9,4.6,27.5,4.2z M26.6,10.1C26.6,26.8,15,28.7,15,28.7S3.4,26.8,3.4,10.1V5.2c0,0,0.4,0,1,0c1.1,0,3-0.1,4.8-0.5
	C12.1,4,15,1.3,15,1.3s3,2.8,5.9,3.4c1.8,0.4,3.6,0.5,4.7,0.5c0.6,0,1,0,1,0L26.6,10.1z"/>
</svg>