<svg version="1.1" id="图层_1" xmlns="http://www.w3.org/2000/svg" xmlns:xlink="http://www.w3.org/1999/xlink" x="0px" y="0px"
	 viewBox="-111.5 10.5 47 47" style="enable-background:new -111.5 10.5 47 47;" xml:space="preserve">
<style type="text/css">
	.st0{fill:#33A9FC;}
</style>
<g>
	<path class="st0" d="M-110.4,41.1l13.8-13.8c0.1-0.1,0.2-0.1,0.2-0.2c2-2.4,5-4,8.4-4c0.2,0,0.5,0,0.7,0l-10.5-10.5
		c-8.1,3.7-13.7,11.9-13.7,21.3C-111.5,36.5-111.1,38.8-110.4,41.1z"/>
	<path class="st0" d="M-66.7,24.2c-3.7-8.1-11.9-13.7-21.3-13.7c-2.5,0-4.8,0.4-7.1,1.1l13.8,13.8c0.1,0.1,0.1,0.2,0.2,0.2
		c2.4,2,4,5,4,8.4c0,0.2,0,0.5,0,0.7L-66.7,24.2z"/>
	<circle class="st0" cx="-88" cy="34" r="8.1"/>
	<path class="st0" d="M-65.6,26.9l-13.8,13.8c-0.1,0.1-0.2,0.1-0.2,0.2c-2,2.4-5,4-8.4,4c-0.2,0-0.5,0-0.7,0l10.5,10.5
		c8.1-3.7,13.7-11.9,13.7-21.3C-64.5,31.5-64.9,29.2-65.6,26.9z"/>
	<path class="st0" d="M-88,57.5c2.5,0,4.8-0.4,7.1-1.1l-13.8-13.8c-0.1-0.1-0.1-0.2-0.2-0.2c-2.4-2-4-5-4-8.4c0-0.2,0-0.5,0-0.7
		l-10.5,10.5C-105.6,51.9-97.5,57.5-88,57.5z"/>
</g>
</svg>