<svg version="1.1" id="图层_1" xmlns="http://www.w3.org/2000/svg" xmlns:xlink="http://www.w3.org/1999/xlink" x="0px" y="0px"
	 viewBox="-123.4 1.6 70 70" style="enable-background:new -123.4 1.6 70 70;" xml:space="preserve">
<style type="text/css">
	.st0{fill:#FFF9E3;}
	.st1{fill:#CAEBFF;}
	.st2{fill:#33A9FC;}
	.st3{fill:none;stroke:#33A9FC;stroke-width:1.8;stroke-linecap:round;stroke-linejoin:round;stroke-miterlimit:10;}
	.st4{fill:#92DBFF;}
	.st5{fill:#FFFFFF;}
	.st6{font-family:'JPangWa';}
	.st7{font-size:11.9423px;}
</style>
<circle class="st0" cx="-88.4" cy="36.6" r="35"/>
<g>
	<g>
		<path class="st1" d="M-95.6,23.3c-1,0-1.9-0.7-2.2-1.7c0-0.1-0.1-0.2-0.1-0.3c0,0,0-0.2,0-0.2v-1.6c0,0,0-0.1,0-0.1v-0.8
			c0,0,0-0.1,0-0.1v-4.7c0-0.1,0-0.2,0.1-0.4c0.2-1,1.1-1.7,2.1-1.7h15.2c1,0,1.9,0.7,2.2,1.7c0,0.1,0.1,0.2,0.1,0.3l0,3.5
			c0,0,0,0.1,0,0.1l0,0.7c0,0,0,0.1,0,0.1v3c0,0.1,0,0.2-0.1,0.4c-0.2,1-1.1,1.7-2.1,1.7h-0.9c-0.5,0-0.9-0.4-0.9-0.9v-1.6
			c0,0,0-0.1,0-0.1v-1c0,0,0-0.1,0-0.1l0-3.4c0,0,0,0,0-0.1c0-0.2-0.1-0.3-0.1-0.4l-11.3,0c0,0-0.1,0.1-0.1,0.3c0,0,0,0,0,0.1v4.6
			c0,0,0,0.1,0,0.1v1c0,0,0,0.1,0,0.1l0,0.3c0,0.5-0.4,0.9-0.9,0.9H-95.6z"/>
		<path class="st2" d="M-80.4,12.7c0.7,0,1.2,0.5,1.3,1.1h0v0.1c0,0,0,0,0,0.1v3.3c0,0,0,0,0,0.1v0.9h0v3h0
			c-0.1,0.6-0.6,1.1-1.3,1.1h-0.9v-1.6h0v-1c0,0,0,0,0-0.1v-3.4c0,0,0,0,0-0.1v-0.1h0c-0.1-0.6-0.5-1.1-1-1.1h-11.4
			c-0.5,0-0.9,0.5-1,1.1h0V21h0v1c0,0,0,0,0,0.1v0.4h-0.9c-0.7,0-1.2-0.5-1.3-1.1h0v-0.1c0,0,0,0,0-0.1v-1.6c0,0,0,0,0-0.1v-0.9h0
			v-4.7h0c0.1-0.6,0.6-1.1,1.3-1.1H-80.4 M-80.4,10.9h-15.2c-1.4,0-2.6,1-3,2.3c-0.1,0.2-0.1,0.4-0.1,0.6v4.7c0,0,0,0.1,0,0.1v0.7
			c0,0,0,0.1,0,0.1v1.6c0,0,0,0.1,0,0.1v0c0,0.2,0,0.4,0.1,0.6c0.3,1.4,1.6,2.3,3,2.3h0.9c1,0,1.8-0.8,1.8-1.8v-0.3c0,0,0-0.1,0-0.1
			l0-1c0,0,0-0.1,0-0.1v-4h9.8v2.9c0,0,0,0.1,0,0.1l0,1c0,0,0,0.1,0,0.1v1.5c0,1,0.8,1.8,1.8,1.8h0.9c1.4,0,2.6-1,3-2.3
			c0.1-0.2,0.1-0.4,0.1-0.6v-3c0,0,0-0.1,0-0.1v-0.7c0,0,0-0.1,0-0.1V14c0,0,0-0.1,0-0.1v0c0-0.2,0-0.4-0.1-0.6
			C-77.8,11.9-79,10.9-80.4,10.9L-80.4,10.9z"/>
	</g>
	<path class="st1" d="M-70.3,29.5v-7.8c0,0,0-0.1,0-0.1v-0.3h0c-0.2-1.5-1.4-2.6-2.8-2.6h-32.7c-1.4,0-2.6,1.1-2.8,2.6h0v11h0v2.2
		c0,0,0,0.1,0,0.1v13.8c0,0,0,0.1,0,0.1v0.3h0c0.2,1.5,1.4,2.6,2.8,2.6h32.7c1.4,0,2.6-1.1,2.8-2.6h0v-17h0v-2.2
		C-70.3,29.6-70.3,29.5-70.3,29.5L-70.3,29.5z"/>
	<path class="st3" d="M-67,31.3V23c0,0,0-0.1,0-0.1v-0.3h0c-0.2-1.6-1.5-2.8-3.1-2.8h-35.8c-1.6,0-2.9,1.2-3.1,2.8h0v11.7h0v2.3
		c0,0,0,0.1,0,0.1v14.6c0,0,0,0.1,0,0.1v0.3h0c0.2,1.6,1.5,2.8,3.1,2.8h35.8c1.6,0,2.9-1.2,3.1-2.8h0V33.8h0v-2.3
		C-67,31.4-67,31.4-67,31.3L-67,31.3z"/>
	<ellipse class="st4" cx="-88" cy="38.6" rx="9" ry="9.5"/>
	<text transform="matrix(0.9555 0 0 1 -93.4683 42.791)" class="st5 st6 st7">M</text>
	<path class="st5" d="M-98.5,23.2c-1.5,0-2.9,0-4.4,0c-0.7,0-1.6-0.1-2.2,0.4c-1.4,1.1-1.2,4.4-1.2,5.9c0,0.4,0.6,0.4,0.7,0
		c0.1-1.8-0.3-5.2,2-5.6c1.6-0.3,3.5,0,5.1,0C-98.1,23.9-98.1,23.2-98.5,23.2L-98.5,23.2z M-97.3,23.8l1.2-0.1c0.4,0,0.4-0.7,0-0.7
		l-1.2,0.1C-97.7,23.1-97.7,23.8-97.3,23.8z M-105.9,31.2c0.4,0,0.4-0.7,0-0.7C-106.3,30.5-106.3,31.2-105.9,31.2z"/>
</g>
</svg>