<svg version="1.1" id="图层_1" xmlns="http://www.w3.org/2000/svg" xmlns:xlink="http://www.w3.org/1999/xlink" x="0px" y="0px"
	 viewBox="-266 388 18 18" style="enable-background:new -266 388 18 18;" xml:space="preserve">
<style type="text/css">
	.st0{fill:#8C8C8C;}
</style>
<path class="st0" d="M-257,388.8c0.7,0,1.5,0.3,2.1,0.7c0.3,0.2,0.5,0.5,0.7,0.8c0.2,0.3,0.3,0.7,0.4,1l0,0l0,0
	c0.1,0.7,0.2,1.8,0.1,2.9c-0.1,1-0.5,1.9-0.9,2.5l0,0l0,0c-0.6,0.8-1,1.5-1,2.2c0,0.6,0.2,0.9,0.3,1.1c1.1,1.5,2.5,1.8,3.8,2.1
	c0.2,0.1,0.5,0.1,0.7,0.2c0.4,0.1,0.9,0.3,1.2,0.5l0,0l0,0c0.5,0.3,0.7,0.9,0.9,1.7c0,0.2,0,0.4,0,0.5h-6.6h-1.6h-1.5h-6.6
	c0-0.2,0-0.3,0-0.5c0-0.4,0.1-0.7,0.3-1c0.1-0.3,0.3-0.6,0.6-0.7l0,0l0,0c0.4-0.3,0.8-0.4,1.2-0.5c0.2-0.1,0.4-0.1,0.7-0.2
	c1.3-0.3,2.7-0.6,3.8-2.1c0.1-0.1,0.3-0.5,0.3-1.1c0-0.7-0.4-1.4-1-2.2l0,0l0,0c-0.5-0.6-0.8-1.4-0.9-2.5c-0.2-1.1,0-2.2,0.1-2.9
	l0,0l0,0c0.1-0.4,0.2-0.7,0.4-1c0.2-0.3,0.4-0.6,0.7-0.8C-258.5,389.1-257.7,388.8-257,388.8 M-257,388c-1.9,0-3.7,1.3-4,3.3
	c-0.3,2-0.2,4.5,1.1,6.1c1.3,1.6,0.7,2.2,0.7,2.2c-1.1,1.5-2.6,1.6-4,1.9c-0.5,0.1-1.1,0.3-1.5,0.7c-1.6,1.2-1.2,3.8-1.2,3.8h0.2
	h7.2h1.5h1.6h7.2h0.1c0,0,0.4-2.6-1.2-3.8c-0.4-0.3-1-0.5-1.5-0.7c-1.4-0.4-3-0.5-4-2c0,0-0.6-0.7,0.7-2.2c1.3-1.6,1.4-4.1,1.1-6.1
	C-253.3,389.3-255.1,388-257,388L-257,388z"/>
</svg>