<svg version="1.1" id="图层_1" xmlns="http://www.w3.org/2000/svg" xmlns:xlink="http://www.w3.org/1999/xlink" x="0px" y="0px"
	 viewBox="-315.4 346.5 112 101" style="enable-background:new -315.4 346.5 112 101;" xml:space="preserve">
<style type="text/css">
	.st0{fill:#008CFF;}
	.st1{fill:#FFFFFF;}
	.st2{fill:#C2E3FF;}
</style>
<path class="st0" d="M-208.4,447.5h-102c-2.8,0-5-2.3-5-5v-91c0-2.8,2.3-5,5-5h102c2.8,0,5,2.3,5,5v91
	C-203.4,445.3-205.6,447.5-208.4,447.5z"/>
<path class="st1" d="M-260.8,386c-10.8,0.5-19.4,10.2-19.4,22.1c0,16.6,8.6,21.9,19.4,22.1c10.2-0.3,19.4-5.5,19.4-22.1
	C-241.3,396.2-250.6,386.5-260.8,386z M-250.5,373.2c0,5.7-4.6,10.3-10.3,10.3s-10.3-4.6-10.3-10.3s4.6-10.3,10.3-10.3
	S-250.5,367.5-250.5,373.2z"/>
<path class="st1" d="M-285.3,408.1c0-7.6,3.5-14.3,8.9-18.3c-1.8-1-3.8-1.5-5.9-1.5c-2.5,0-6.4,1.4-9,3.7c-4.7,3.7-7.5,9.9-7.5,15.4
	c0,11.5,5.8,16.3,11.5,18c1.6,0.7,3.2,1.1,5,1.1c1.2,0,2.4-0.2,3.5-0.5C-282.8,422.5-285.3,416.9-285.3,408.1z M-281.8,370.8
	c-4.2,0-7.5,3.4-7.5,7.5c0,4.2,3.4,7.5,7.5,7.5c4.2,0,7.5-3.4,7.5-7.5C-274.3,374.2-277.6,370.8-281.8,370.8z M-239.8,370.8
	c-4.2,0-7.5,3.4-7.5,7.5c0,4.2,3.4,7.5,7.5,7.5c4.2,0,7.5-3.4,7.5-7.5C-232.2,374.2-235.6,370.8-239.8,370.8z M-236.3,408.1
	c0-7.6-3.5-14.3-8.9-18.3c1.8-1,3.8-1.5,5.9-1.5c2.5,0,6.5,1.4,9,3.7c4.7,3.7,7.5,9.9,7.5,15.4c0,11.5-5.8,16.3-11.5,18
	c-1.6,0.7-3.2,1.1-5,1.1c-1.2,0-2.4-0.2-3.5-0.5C-238.7,422.5-236.3,416.9-236.3,408.1z"/>
<path class="st2" d="M-294.4,406.2c0.4-7.6,8-16.8,18-16.4c-1.8-1-3.8-1.5-5.9-1.5c-2.5,0-6.4,1.4-9,3.7c-4.7,3.7-7.5,9.9-7.5,15.4
	c0,11.5,5.8,16.3,11.5,18c1.6,0.7,3.2,1.1,5,1.1c1.2,0,2.4-0.2,3.5-0.5C-285.5,423.6-295.1,418.4-294.4,406.2z"/>
<path class="st2" d="M-285.7,378.4c0-3.5,2.4-6.5,5.7-7.3c-0.6-0.1-1.2-0.3-1.8-0.3c-4.2,0-7.5,3.4-7.5,7.5c0,4.2,3.4,7.5,7.5,7.5
	c0.6,0,1.2-0.1,1.8-0.3C-283.2,384.9-285.7,381.9-285.7,378.4z"/>
<path class="st2" d="M-235.9,378.3c0,3.5-2.4,6.5-5.7,7.3c0.6,0.1,1.2,0.3,1.8,0.3c4.2,0,7.5-3.4,7.5-7.5c0-4.2-3.4-7.5-7.5-7.5
	c-0.6,0-1.2,0.1-1.8,0.3C-238.3,371.9-235.9,374.8-235.9,378.3z"/>
<path class="st2" d="M-242.7,425.9c1.1,0.3,2.3,0.5,3.5,0.5c1.8,0,3.4-0.4,5-1.1c5.7-1.7,11.5-6.5,11.5-18c0-5.5-2.8-11.7-7.5-15.4
	c-2.5-2.3-6.4-3.7-9-3.7c-2.1,0-4.1,0.5-5.9,1.5c8.5,0.1,18,8.3,18.4,17.1C-226.2,419.2-237,423.7-242.7,425.9z"/>
</svg>