<svg xmlns="http://www.w3.org/2000/svg" xmlns:xlink="http://www.w3.org/1999/xlink" version="1.1" id="图层_1" x="0px" y="0px" viewBox="0 0 50 50" style="enable-background:new 0 0 50 50;" xml:space="preserve">
<style type="text/css">
	.st0{fill:#1296DB;}
	.st1{fill:none;}
</style>
<g id="XMLID_4_">
	<path id="XMLID_2_" class="st0" d="M31.4,32.6c-4.4,5.3-8.9,8.5-15.8,8.5S4.2,36.8,4.8,31.7c0.3-3.4,2.6-8.9,12.7-8   c5.3,0.4,7.7,1.5,12.1,2.9c1.2-2,2-4.4,2.8-6.7H13.2V18h9.5v-3.4H11.1v-2.2h11.5v-5c0,0,0.1-0.7,1-0.7h4.8v5.7h12.3v2H28.4v3.4   h10.1c-0.9,3.8-2.3,7.3-4.1,10.2c2.5,0.9,12.6,3.9,15.5,4.8V7.3c0-4.1-3.4-7.3-7.3-7.3H7.3C3.2,0,0,3.4,0,7.3v35.4   C0,46.8,3.4,50,7.3,50h35.4c4.1,0,7.3-3.4,7.3-7.3v-1.8C47.5,39.8,36.4,34.9,31.4,32.6L31.4,32.6z"/>
	<path id="XMLID_1_" class="st0" d="M6.9,31.3c-0.4,1.9,0.7,6.4,8,6.4c4.4,0,8.8-2.8,12.3-7.3c-5-2.5-9.1-3.7-13.7-3.7   C9.4,26.9,7.3,29.4,6.9,31.3L6.9,31.3z"/>
	<line id="XMLID_3_" class="st1" x1="38.7" y1="5.7" x2="38.7" y2="5.5"/>
</g>
</svg>