<svg version="1.1" id="图层_1" xmlns="http://www.w3.org/2000/svg" xmlns:xlink="http://www.w3.org/1999/xlink" x="0px" y="0px"
	 viewBox="-123.4 -1.9 70 70" style="enable-background:new -123.4 -1.9 70 70;" xml:space="preserve">
<style type="text/css">
	.st0{fill:#FFF9E3;}
	.st1{fill:#33A9FC;stroke:#33A9FC;stroke-width:0.4;stroke-miterlimit:10;}
	.st2{fill:#CAEBFF;}
	.st3{fill:#FFFFFF;}
</style>
<circle class="st0" cx="-88.4" cy="33.1" r="35"/>
<g>
	<path class="st1" d="M-62.1,45.3c-0.6,0-1-0.4-1-1c0-6.1-3.7-11.6-9.3-14.1c-0.3-0.1-0.5-0.4-0.6-0.8c-0.1-0.4,0.1-0.7,0.3-0.9
		c1.9-1.6,3.1-4.1,3.1-6.7c0-4.8-3.9-8.7-8.7-8.7c-0.3,0-0.7,0-1,0.1c-0.6,0.1-1-0.3-1.1-0.9c-0.1-0.5,0.3-1,0.9-1.1
		c0.4,0,0.8-0.1,1.2-0.1c5.9,0,10.7,4.8,10.7,10.7c0,2.6-1,5.1-2.7,7.1c5.6,2.9,9.2,8.7,9.2,15.2C-61.1,44.9-61.6,45.3-62.1,45.3z
		 M-114.5,45.3c-0.6,0-1-0.4-1-1c0-6.4,3.6-12.2,9.2-15.2c-1.7-1.9-2.7-4.5-2.7-7.1c0-5.9,4.8-10.7,10.7-10.7c0.4,0,0.8,0,1.2,0.1
		c0.5,0.1,0.9,0.6,0.9,1.1c-0.1,0.5-0.6,0.9-1.1,0.9c-0.3,0-0.6-0.1-1-0.1c-4.8,0-8.7,3.9-8.7,8.7c0,2.5,1.2,4.9,3.1,6.7
		c0.3,0.2,0.4,0.6,0.3,0.9c-0.1,0.3-0.3,0.6-0.6,0.8c-5.6,2.4-9.3,7.9-9.3,14.1C-113.5,44.9-114,45.3-114.5,45.3z"/>
	<path class="st2" d="M-88.3,28.3c-8.9,0-16.2,7.3-16.2,16.2c0,0.4,0,4,0.1,4.3c4.2,4.1,9.9,6.6,16.1,6.6c6.2,0,12-2.5,16.1-6.6
		c0-0.4,0.1-4,0.1-4.3C-72.1,35.4-79.3,28.3-88.3,28.3z"/>
	<path class="st1" d="M-88.3,56.3c-6.3,0-12.3-2.4-16.8-6.9c-0.2-0.2-0.3-0.4-0.3-0.6c0-0.4-0.1-4.1-0.1-4.4
		c0-9.5,7.7-17.2,17.2-17.2s17.2,7.7,17.2,17.2c0,0.3,0,4-0.1,4.4c0,0.2-0.1,0.5-0.3,0.6C-76,53.9-82,56.3-88.3,56.3z M-103.5,48.2
		c4.1,3.9,9.5,6,15.2,6s11.1-2.1,15.2-6v-3.9c0-8.4-6.8-15.2-15.2-15.2s-15.2,6.8-15.2,15.2V48.2z"/>
	<path class="st2" d="M-97,22.1c0,4.8,3.9,8.7,8.7,8.7s8.7-3.9,8.7-8.7c0,0,0,0,0,0c0-4.8-3.9-8.7-8.7-8.7
		C-93.1,13.3-97,17.2-97,22.1L-97,22.1z"/>
	<path class="st1" d="M-88.3,32.7c-5.9,0-10.7-4.8-10.7-10.7s4.8-10.7,10.7-10.7c5.9,0,10.7,4.8,10.7,10.7S-82.4,32.7-88.3,32.7z
		 M-88.3,13.3c-4.8,0-8.7,3.9-8.7,8.7s3.9,8.7,8.7,8.7c4.8,0,8.7-3.9,8.7-8.7S-83.5,13.3-88.3,13.3z"/>
	<path class="st2" d="M-96.8,36.1l1.6-6.4l6.8,10.2L-96.8,36.1z"/>
	<path class="st1" d="M-88.4,41.1c-0.1,0-0.3,0-0.4-0.1l-8.3-3.8c-0.4-0.2-0.7-0.7-0.6-1.1l1.6-6.4c0.1-0.4,0.4-0.7,0.8-0.7
		c0.4-0.1,0.8,0.1,1,0.4l6.7,10.1c0.2,0.2,0.3,0.4,0.3,0.7C-87.4,40.7-87.9,41.1-88.4,41.1z M-95.6,35.7l4.6,2l-3.7-5.5L-95.6,35.7z
		"/>
	<path class="st2" d="M-79.9,36.1l-1.6-6.4l-6.8,10.2L-79.9,36.1z"/>
	<path class="st1" d="M-88.3,41.1c-0.3,0-0.6-0.1-0.8-0.4c-0.3-0.3-0.3-0.8-0.1-1.2l6.8-10.2c0.2-0.3,0.6-0.5,1-0.4s0.7,0.4,0.8,0.7
		l1.6,6.4c0.1,0.5-0.1,1-0.6,1.1l-8.3,3.8C-88,41.1-88.2,41.1-88.3,41.1z M-81.9,32.2l-3.7,5.5l4.6-2L-81.9,32.2z"/>
	<path class="st1" d="M-97.8,54.4c-0.6,0-1-0.4-1-1V42.8c0-0.6,0.4-1,1-1c0.6,0,1,0.4,1,1v10.5C-96.8,53.9-97.3,54.4-97.8,54.4z"/>
	<path class="st1" d="M-78.5,54.2c-0.6,0-1-0.4-1-1V42.6c0-0.6,0.4-1,1-1s1,0.4,1,1.2v10.5C-77.5,53.7-77.9,54.2-78.5,54.2z"/>
	<path class="st3" d="M-94.8,20.8c0.5,0,0.6-0.8,0-0.8C-95.3,20-95.3,20.8-94.8,20.8z"/>
	<path class="st3" d="M-91.2,15.6c0.1,0.1,0.1,0.2,0,0.2c0,0.1-0.1,0.1-0.2,0.2c-1.6,0.5-2.8,1.8-3,3.5c0,0.1-0.2,0.2-0.3,0.2
		c-0.2,0-0.2-0.1-0.2-0.3c0.2-1.7,1.4-3.2,3-3.8"/>
</g>
</svg>