<svg version="1.1" id="图层_1" xmlns="http://www.w3.org/2000/svg" xmlns:xlink="http://www.w3.org/1999/xlink" x="0px" y="0px"
	 viewBox="-75 77 48 48" style="enable-background:new -75 77 48 48;" xml:space="preserve">
<style type="text/css">
	.st0{fill:#6E6E6E;}
</style>
<path class="st0" d="M-29.3,104.7h-5.1v15.1c0,1.4-0.6,2.6-1.4,3.5c-0.9,0.9-2.1,1.5-3.5,1.5H-46v-10.1c0-1.4-0.6-2.7-1.5-3.6
	s-2.1-1.5-3.5-1.5s-2.6,0.6-3.5,1.5s-1.5,2.2-1.5,3.6v10.1h-6.7c-1.4,0-2.6-0.6-3.5-1.5c-0.9-0.9-1.4-2.2-1.4-3.5v-15.1h-5.5
	c-0.1-0.1-0.3-0.3-0.4-0.4c-1-1-1.5-2.4-1.5-3.7c0-1.3,0.5-2.7,1.5-3.7c5.9-6.1,12.4-12.1,18.5-18.1c1.1-1.1,2.6-1.6,4-1.6
	c1.5,0,2.9,0.5,4,1.6l2.8,2.8c0.1-1.1,0.5-2,1.2-2.8s1.8-1.2,2.9-1.2l0,0c1.1,0,2.1,0.5,2.9,1.2c0.7,0.8,1.2,1.8,1.2,2.9
	c0,2.6,0,5.2-0.1,7.8l7.5,7.3c1,1.1,1.5,2.4,1.5,3.7c0,1.3-0.5,2.7-1.5,3.7l-0.5,0.4L-29.3,104.7L-29.3,104.7z M-35.4,102.7h5.6
	c0.5-0.6,0.8-1.4,0.8-2.1c0-0.8-0.3-1.7-0.9-2.3c-2.6-2.7-5.4-5.3-8.1-7.9l0.1-8.6l0,0c0-0.6-0.2-1.1-0.6-1.5
	c-0.4-0.4-0.9-0.6-1.5-0.6l0,0c-0.6,0-1.1,0.2-1.5,0.6s-0.6,0.9-0.6,1.5v4.5l-6.2-6c-0.7-0.7-1.7-1-2.6-1c-1,0-1.9,0.4-2.6,1
	l-18.4,18c-0.6,0.7-1,1.5-1,2.3s0.3,1.5,0.8,2.1h6.6v17.1c0,0.8,0.3,1.6,0.9,2.1c0.5,0.5,1.3,0.9,2.1,0.9h4.7v-8c0-1.9,0.8-3.7,2-5
	c1.3-1.3,3-2.1,4.9-2.1s3.6,0.8,4.9,2.1c1.3,1.3,2,3.1,2,5v8h4.7c0.8,0,1.6-0.3,2.1-0.9c0.5-0.5,0.9-1.3,0.9-2.1v-17.1H-35.4
	L-35.4,102.7z"/>
</svg>